<svg xmlns="http://www.w3.org/2000/svg" width="900" height="260" viewBox="0 0 900 260" role="img" aria-label="Yuya Osugi — 想いを、かたちにする。"><title>Yuya Osugi — 想いを、かたちにする。</title><style>.f{animation:up .9s cubic-bezier(.2,.7,.2,1) both}.f1{animation-delay:.1s}.f2{animation-delay:.3s}.f3{animation-delay:.6s}.f4{animation-delay:.8s}.f5{animation-delay:1s}@keyframes up{from{opacity:0;transform:translateY(12px)}to{opacity:1;transform:none}}.spin{transform-box:fill-box;transform-origin:center;animation:spin 40s linear infinite}@keyframes spin{to{transform:rotate(360deg)}}@media (prefers-reduced-motion:reduce){.f,.spin{animation:none}}</style>
<rect width="900" height="260" rx="6" fill="#F6F2EB"/>
<path d="M0 65H900M0 130H900M0 195H900M150 0V260M300 0V260M450 0V260M600 0V260M750 0V260" stroke="#2A2620" stroke-opacity=".07" fill="none"/>
<g class="f f1"><path fill="#A85E36" d="M60.3 78Q60.2 78 60.2 77.9Q60.1 77.9 60.1 77.8Q60.1 77.7 60.2 77.7Q60.2 77.6 60.3 77.6Q60.9 77.6 61.2 77.5Q61.5 77.4 61.5 76.9V70.4Q61.5 69.9 61.2 69.8Q61 69.7 60.3 69.7Q60.2 69.7 60.2 69.6Q60.1 69.6 60.1 69.5Q60.1 69.4 60.2 69.3Q60.2 69.3 60.3 69.3Q60.4 69.3 61.3 69.3Q62.2 69.3 63.8 69.3Q65.3 69.3 66.3 69.3Q67.2 69.3 67.3 69.3Q67.6 69.3 67.6 69.6Q67.6 69.7 67.6 69.9Q67.7 70.2 67.7 70.5Q67.7 70.8 67.7 71.1Q67.7 71.3 67.7 71.3Q67.7 71.5 67.5 71.5Q67.4 71.5 67.3 71.4Q67.2 71.2 67.1 70.9Q66.9 70.6 66.7 70.3Q66.5 70.1 66.2 69.9Q65.8 69.7 65.4 69.7H62.8Q62.6 69.7 62.6 70V73.1Q62.6 73.3 62.7 73.3H63.8Q64.3 73.3 64.5 73.1Q64.8 72.9 64.9 72.6Q65.1 72.4 65.2 72.2Q65.2 72 65.4 72Q65.5 72 65.5 72.2Q65.5 72.3 65.5 72.7Q65.5 73.1 65.5 73.5Q65.5 73.7 65.5 74Q65.5 74.3 65.5 74.6Q65.5 74.8 65.5 74.9Q65.5 75 65.4 75Q65.3 75 65.2 75Q65.2 75 65.2 74.9Q65.1 74.7 64.9 74.4Q64.8 74.1 64.5 73.9Q64.3 73.7 63.8 73.7H62.7Q62.6 73.7 62.6 73.9V76.9Q62.6 77.4 62.8 77.5Q63.1 77.6 63.8 77.6Q63.9 77.6 64 77.7Q64 77.7 64 77.8Q64 77.9 64 77.9Q63.9 78 63.8 78Q63.7 78 63.3 78Q62.8 78 62 78Q61.3 78 60.9 78Q60.4 78 60.3 78ZM79 78.1Q78.5 78.1 78.2 77.9Q78 77.6 77.8 77.2Q77.7 76.9 77.6 76.4Q77.5 75.9 77.4 75.5Q77.4 75 77.2 74.7Q77.1 74.3 76.8 74Q76.5 73.8 76 73.8H74.8Q74.6 73.8 74.6 74V76.9Q74.6 77.3 74.8 77.5Q75.1 77.6 75.6 77.6Q75.7 77.6 75.7 77.7Q75.8 77.7 75.8 77.8Q75.8 77.9 75.7 77.9Q75.7 78 75.6 78Q75.5 78 75.1 78Q74.7 78 74.1 78Q73.4 78 73.1 78Q72.7 78 72.6 78Q72.5 78 72.5 77.9Q72.4 77.9 72.4 77.8Q72.4 77.7 72.5 77.7Q72.5 77.6 72.6 77.6Q73.2 77.6 73.3 77.5Q73.5 77.3 73.5 76.9V70.4Q73.5 70 73.3 69.8Q73.2 69.7 72.6 69.7Q72.4 69.7 72.4 69.5Q72.4 69.3 72.6 69.3Q72.7 69.3 73.1 69.3Q73.4 69.3 74.1 69.3Q74.7 69.3 75.2 69.3Q75.6 69.3 75.9 69.3Q76.3 69.3 76.5 69.3Q77.2 69.3 77.8 69.5Q78.5 69.7 78.9 70.2Q79.3 70.7 79.3 71.5Q79.3 72 79.1 72.3Q78.9 72.7 78.6 72.9Q78.2 73.2 77.9 73.3Q77.5 73.5 77.2 73.6Q77.1 73.6 77.1 73.7Q77.1 73.7 77.2 73.7Q77.6 73.9 77.9 74.2Q78.1 74.6 78.3 75Q78.5 75.4 78.6 75.8Q78.7 76.2 78.8 76.6Q78.9 77 79 77.2Q79.2 77.4 79.4 77.4Q79.6 77.4 79.7 77.3Q79.8 77.2 79.9 77.1Q80 77 80.1 77.1Q80.2 77.2 80.2 77.3Q80.1 77.5 79.9 77.6Q79.8 77.8 79.6 78Q79.3 78.1 79 78.1ZM74.8 73.4H76.2Q77 73.4 77.5 72.9Q78.1 72.3 78.1 71.5Q78.1 71 77.9 70.6Q77.7 70.2 77.4 69.9Q77 69.7 76.5 69.7H74.8Q74.6 69.7 74.6 70V73.2Q74.6 73.4 74.8 73.4ZM88.7 78.1Q87.9 78.1 87.2 77.8Q86.6 77.5 86 76.9Q85.5 76.3 85.2 75.5Q84.9 74.7 84.9 73.7Q84.9 72.6 85.2 71.8Q85.5 71 86.1 70.4Q86.6 69.8 87.3 69.5Q88 69.1 88.7 69.1Q89.5 69.1 90.1 69.5Q90.8 69.8 91.4 70.4Q91.9 71 92.2 71.8Q92.5 72.6 92.5 73.7Q92.5 74.7 92.2 75.5Q91.9 76.3 91.4 76.9Q90.9 77.5 90.2 77.8Q89.5 78.1 88.7 78.1ZM88.7 77.7Q89.4 77.7 89.9 77.3Q90.5 77 90.9 76.1Q91.2 75.2 91.2 73.7Q91.2 72.1 90.9 71.2Q90.5 70.3 89.9 70Q89.4 69.6 88.7 69.6Q88.1 69.6 87.5 70Q86.9 70.3 86.6 71.2Q86.2 72.1 86.2 73.7Q86.2 75.2 86.6 76.1Q86.9 77 87.5 77.3Q88.1 77.7 88.7 77.7ZM104.3 78Q104.1 78 104 78Q104 77.9 103.9 77.8Q103.8 77.6 103.4 77.1Q103.1 76.6 102.7 75.9Q102.3 75.3 101.9 74.6Q101.4 73.8 100.9 73.1Q100.5 72.4 100.1 71.9Q99.7 71.3 99.5 70.9Q99.2 70.5 99.2 70.4Q99.1 70.4 99.1 70.4Q99 70.4 99 70.4V76Q99 76.9 99.3 77.2Q99.6 77.6 100 77.6Q100.1 77.6 100.2 77.7Q100.2 77.7 100.2 77.8Q100.2 77.9 100.2 77.9Q100.1 78 100 78Q99.9 78 99.6 78Q99.4 78 98.8 78Q98.2 78 98 78Q97.8 78 97.6 78Q97.5 78 97.5 77.9Q97.5 77.9 97.5 77.8Q97.5 77.7 97.5 77.7Q97.5 77.6 97.6 77.6Q98.1 77.6 98.3 77.2Q98.6 76.9 98.6 76V70.5Q98.6 70 98.3 69.8Q98.1 69.7 97.7 69.7Q97.6 69.7 97.6 69.6Q97.5 69.6 97.5 69.5Q97.5 69.4 97.6 69.3Q97.6 69.3 97.7 69.3Q97.8 69.3 98.1 69.3Q98.5 69.3 99.4 69.3Q99.6 69.3 99.7 69.4Q99.8 69.4 99.9 69.6Q99.9 69.7 100.2 70.1Q100.4 70.4 100.8 71Q101.1 71.5 101.6 72.2Q102 72.8 102.4 73.5Q102.8 74.1 103.2 74.7Q103.6 75.2 103.8 75.6Q104.1 76 104.1 76.1Q104.2 76.1 104.2 76.1Q104.3 76.1 104.3 76V71.3Q104.3 70.4 104 70.1Q103.7 69.7 103.3 69.7Q103.2 69.7 103.2 69.6Q103.2 69.6 103.2 69.5Q103.2 69.4 103.2 69.3Q103.2 69.3 103.3 69.3Q103.5 69.3 103.7 69.3Q103.9 69.3 104.5 69.3Q105 69.3 105.2 69.3Q105.5 69.3 105.6 69.3Q105.6 69.3 105.7 69.3Q105.7 69.4 105.7 69.5Q105.7 69.6 105.7 69.6Q105.6 69.7 105.6 69.7Q105.4 69.7 105.2 69.8Q105 70 104.9 70.4Q104.7 70.7 104.7 71.3V75.8Q104.7 75.9 104.7 76Q104.7 76.2 104.7 76.2Q104.7 76.7 104.7 77Q104.7 77.3 104.8 77.7Q104.8 77.8 104.6 77.9Q104.4 78 104.3 78ZM112.9 78Q112.8 78 112.7 77.9Q112.7 77.9 112.7 77.8Q112.7 77.7 112.7 77.7Q112.8 77.6 112.9 77.6Q113.4 77.6 113.6 77.5Q113.9 77.3 113.9 76.9V70Q113.9 69.7 113.6 69.7H112.8Q112.3 69.7 112 69.9Q111.7 70.1 111.5 70.3Q111.3 70.6 111.1 70.9Q111 71.2 110.9 71.4Q110.8 71.5 110.7 71.5Q110.5 71.5 110.5 71.3Q110.5 71.3 110.5 71.1Q110.5 70.8 110.6 70.5Q110.6 70.2 110.6 69.9Q110.6 69.7 110.6 69.6Q110.6 69.3 110.9 69.3Q111 69.3 112 69.3Q112.9 69.3 114.5 69.3Q116 69.3 117 69.3Q117.9 69.3 118 69.3Q118.3 69.3 118.3 69.6Q118.3 69.7 118.3 69.9Q118.3 70.2 118.3 70.5Q118.4 70.8 118.4 71.1Q118.4 71.3 118.4 71.3Q118.4 71.5 118.2 71.5Q118.2 71.5 118.1 71.5Q118 71.5 118 71.4Q117.9 71.2 117.8 70.9Q117.6 70.6 117.4 70.3Q117.2 70.1 116.9 69.9Q116.6 69.7 116.1 69.7H115.2Q114.9 69.7 114.9 70V76.9Q114.9 77.3 115.1 77.4Q115.3 77.6 115.9 77.6Q116 77.6 116.1 77.7Q116.1 77.7 116.1 77.8Q116.1 77.9 116.1 77.9Q116 78 115.9 78Q115.8 78 115.5 78Q115.2 78 114.4 78Q113.6 78 113.3 78Q113 78 112.9 78ZM123.6 75.8Q123.4 75.8 123.4 75.6V75.2Q123.4 75 123.6 75H127Q127.2 75 127.2 75.2V75.6Q127.2 75.8 127 75.8ZM132.1 78Q132 78 132 77.9Q131.9 77.9 131.9 77.8Q131.9 77.7 132 77.7Q132 77.6 132.1 77.6Q132.6 77.6 132.9 77.5Q133.2 77.4 133.2 76.9V70.4Q133.2 69.9 132.9 69.8Q132.7 69.7 132.1 69.7Q132 69.7 132 69.6Q132 69.6 132 69.5Q132 69.4 132 69.3Q132 69.3 132.1 69.3Q132.2 69.3 133.1 69.3Q133.9 69.3 135.5 69.3Q137.1 69.3 137.9 69.3Q138.8 69.3 138.9 69.3Q139.2 69.3 139.2 69.6Q139.2 69.7 139.2 69.9Q139.2 70.2 139.2 70.4Q139.2 70.7 139.2 70.9Q139.2 71.1 139.2 71.1Q139.2 71.2 139.1 71.3Q138.9 71.3 138.9 71.2Q138.7 70.9 138.5 70.5Q138.3 70.2 137.9 70Q137.5 69.7 136.9 69.7H134.5Q134.3 69.7 134.3 70V73.2Q134.3 73.3 134.4 73.3H135.4Q135.9 73.3 136.1 73.1Q136.4 73 136.5 72.7Q136.7 72.4 136.8 72.2Q136.8 72.1 137 72.1Q137.1 72.1 137.1 72.2Q137.1 72.3 137.1 72.6Q137.1 72.8 137.1 73Q137.1 73.3 137.1 73.6Q137.1 73.8 137.1 74.1Q137.1 74.4 137.1 74.6Q137.1 74.8 137.1 74.9Q137.1 75.1 137 75.1Q136.8 75.1 136.8 74.9Q136.7 74.7 136.5 74.5Q136.4 74.2 136.1 74Q135.9 73.8 135.4 73.8H134.4Q134.3 73.8 134.3 73.9V77.3Q134.3 77.6 134.6 77.6H136.8Q137.4 77.6 137.7 77.4Q138.1 77.2 138.4 76.9Q138.7 76.6 138.8 76.3Q139 76 139 75.8Q139.1 75.7 139.1 75.7Q139.2 75.7 139.3 75.7Q139.4 75.7 139.4 75.8Q139.4 75.9 139.4 76.1Q139.4 76.4 139.4 76.7Q139.4 77 139.4 77.3Q139.4 77.5 139.4 77.6Q139.4 78 139 78Q139 78 138.6 78Q138.3 78 137.6 78Q136.8 78 135.6 78Q134.7 78 133.9 78Q133.1 78 132.6 78Q132.2 78 132.1 78ZM151.2 78Q151 78 150.9 78Q150.8 77.9 150.7 77.8Q150.6 77.6 150.3 77.1Q150 76.6 149.6 75.9Q149.2 75.3 148.7 74.6Q148.2 73.8 147.8 73.1Q147.3 72.4 147 71.9Q146.6 71.3 146.3 70.9Q146.1 70.5 146 70.4Q146 70.4 145.9 70.4Q145.9 70.4 145.9 70.4V76Q145.9 76.9 146.2 77.2Q146.5 77.6 146.9 77.6Q147 77.6 147 77.7Q147.1 77.7 147.1 77.8Q147.1 77.9 147 77.9Q147 78 146.9 78Q146.8 78 146.5 78Q146.2 78 145.7 78Q145.1 78 144.8 78Q144.6 78 144.5 78Q144.4 78 144.4 77.9Q144.3 77.9 144.3 77.8Q144.3 77.7 144.4 77.7Q144.4 77.6 144.5 77.6Q144.9 77.6 145.2 77.2Q145.4 76.9 145.4 76V70.5Q145.4 70 145.2 69.8Q144.9 69.7 144.6 69.7Q144.5 69.7 144.4 69.6Q144.4 69.6 144.4 69.5Q144.4 69.4 144.4 69.3Q144.5 69.3 144.6 69.3Q144.7 69.3 145 69.3Q145.3 69.3 146.2 69.3Q146.4 69.3 146.5 69.4Q146.7 69.4 146.7 69.6Q146.8 69.7 147 70.1Q147.3 70.4 147.6 71Q148 71.5 148.4 72.2Q148.9 72.8 149.3 73.5Q149.7 74.1 150.1 74.7Q150.4 75.2 150.7 75.6Q150.9 76 151 76.1Q151 76.1 151.1 76.1Q151.1 76.1 151.1 76V71.3Q151.1 70.4 150.8 70.1Q150.6 69.7 150.2 69.7Q150.1 69.7 150.1 69.6Q150 69.6 150 69.5Q150 69.4 150.1 69.3Q150.1 69.3 150.2 69.3Q150.3 69.3 150.5 69.3Q150.8 69.3 151.3 69.3Q151.8 69.3 152.1 69.3Q152.3 69.3 152.4 69.3Q152.5 69.3 152.5 69.3Q152.6 69.4 152.6 69.5Q152.6 69.6 152.5 69.6Q152.5 69.7 152.4 69.7Q152.2 69.7 152.1 69.8Q151.9 70 151.7 70.4Q151.6 70.7 151.6 71.3V75.8Q151.6 75.9 151.6 76Q151.6 76.2 151.6 76.2Q151.6 76.7 151.6 77Q151.6 77.3 151.6 77.7Q151.6 77.8 151.5 77.9Q151.3 78 151.2 78ZM157.4 78Q157.3 78 157.2 77.9Q157.2 77.9 157.2 77.8Q157.2 77.7 157.2 77.7Q157.3 77.6 157.4 77.6Q157.9 77.6 158.2 77.5Q158.4 77.3 158.4 76.9V70.4Q158.4 69.9 158.2 69.8Q157.9 69.7 157.4 69.7Q157.3 69.7 157.2 69.6Q157.2 69.6 157.2 69.5Q157.2 69.4 157.2 69.3Q157.3 69.3 157.4 69.3Q157.4 69.3 157.9 69.3Q158.3 69.3 159 69.3Q159.8 69.3 160.2 69.3Q160.7 69.3 161 69.3Q161.7 69.3 162.5 69.5Q163.2 69.8 163.8 70.3Q164.3 70.8 164.7 71.6Q165 72.5 165 73.6Q165 74.8 164.7 75.6Q164.3 76.5 163.8 77Q163.2 77.5 162.5 77.8Q161.7 78 161 78Q160.7 78 160.2 78Q159.8 78 159 78Q158.3 78 157.9 78Q157.5 78 157.4 78ZM159.8 77.6H161Q161.5 77.6 162 77.4Q162.5 77.2 162.9 76.8Q163.3 76.3 163.5 75.6Q163.8 74.8 163.8 73.6Q163.8 72.4 163.5 71.7Q163.3 70.9 162.9 70.5Q162.5 70 162 69.9Q161.5 69.7 161 69.7H159.8Q159.5 69.7 159.5 70V77.3Q159.5 77.6 159.8 77.6ZM177.3 78Q177.2 78 177.2 77.9Q177.1 77.9 177.1 77.8Q177.1 77.7 177.2 77.7Q177.2 77.6 177.3 77.6Q177.8 77.6 178.1 77.5Q178.4 77.4 178.4 76.9V70.4Q178.4 69.9 178.2 69.8Q177.9 69.7 177.4 69.7Q177.3 69.7 177.2 69.6Q177.2 69.6 177.2 69.5Q177.2 69.4 177.2 69.3Q177.3 69.3 177.4 69.3Q177.4 69.3 178.3 69.3Q179.2 69.3 180.8 69.3Q182.3 69.3 183.1 69.3Q184 69.3 184.1 69.3Q184.4 69.3 184.4 69.6Q184.4 69.7 184.4 69.9Q184.4 70.2 184.4 70.4Q184.4 70.7 184.5 70.9Q184.5 71.1 184.5 71.1Q184.5 71.2 184.3 71.3Q184.2 71.3 184.1 71.2Q183.9 70.9 183.7 70.5Q183.5 70.2 183.1 70Q182.8 69.7 182.2 69.7H179.8Q179.5 69.7 179.5 70V73.2Q179.5 73.3 179.7 73.3H180.6Q181.1 73.3 181.4 73.1Q181.6 73 181.8 72.7Q181.9 72.4 182 72.2Q182 72.1 182.2 72.1Q182.4 72.1 182.4 72.2Q182.4 72.3 182.4 72.6Q182.4 72.8 182.4 73Q182.3 73.3 182.3 73.6Q182.3 73.8 182.4 74.1Q182.4 74.4 182.4 74.6Q182.4 74.8 182.4 74.9Q182.4 75.1 182.2 75.1Q182 75.1 182 74.9Q181.9 74.7 181.8 74.5Q181.6 74.2 181.4 74Q181.1 73.8 180.6 73.8H179.7Q179.5 73.8 179.5 73.9V77.3Q179.5 77.6 179.8 77.6H182Q182.6 77.6 183 77.4Q183.4 77.2 183.6 76.9Q183.9 76.6 184 76.3Q184.2 76 184.3 75.8Q184.3 75.7 184.4 75.7Q184.4 75.7 184.5 75.7Q184.6 75.7 184.6 75.8Q184.6 75.9 184.6 76.1Q184.6 76.4 184.6 76.7Q184.6 77 184.6 77.3Q184.6 77.5 184.6 77.6Q184.6 78 184.3 78Q184.2 78 183.8 78Q183.5 78 182.8 78Q182.1 78 180.9 78Q179.9 78 179.1 78Q178.3 78 177.9 78Q177.4 78 177.3 78ZM196.4 78Q196.2 78 196.1 78Q196 77.9 196 77.8Q195.8 77.6 195.5 77.1Q195.2 76.6 194.8 75.9Q194.4 75.3 193.9 74.6Q193.5 73.8 193 73.1Q192.6 72.4 192.2 71.9Q191.8 71.3 191.5 70.9Q191.3 70.5 191.2 70.4Q191.2 70.4 191.2 70.4Q191.1 70.4 191.1 70.4V76Q191.1 76.9 191.4 77.2Q191.7 77.6 192.1 77.6Q192.2 77.6 192.2 77.7Q192.3 77.7 192.3 77.8Q192.3 77.9 192.2 77.9Q192.2 78 192.1 78Q192 78 191.7 78Q191.4 78 190.9 78Q190.3 78 190.1 78Q189.8 78 189.7 78Q189.6 78 189.6 77.9Q189.5 77.9 189.5 77.8Q189.5 77.7 189.6 77.7Q189.6 77.6 189.7 77.6Q190.1 77.6 190.4 77.2Q190.7 76.9 190.7 76V70.5Q190.7 70 190.4 69.8Q190.1 69.7 189.8 69.7Q189.7 69.7 189.7 69.6Q189.6 69.6 189.6 69.5Q189.6 69.4 189.7 69.3Q189.7 69.3 189.8 69.3Q189.9 69.3 190.2 69.3Q190.6 69.3 191.5 69.3Q191.7 69.3 191.8 69.4Q191.9 69.4 192 69.6Q192 69.7 192.3 70.1Q192.5 70.4 192.9 71Q193.2 71.5 193.6 72.2Q194.1 72.8 194.5 73.5Q194.9 74.1 195.3 74.7Q195.6 75.2 195.9 75.6Q196.1 76 196.2 76.1Q196.2 76.1 196.3 76.1Q196.3 76.1 196.3 76V71.3Q196.3 70.4 196.1 70.1Q195.8 69.7 195.4 69.7Q195.3 69.7 195.3 69.6Q195.2 69.6 195.2 69.5Q195.2 69.4 195.3 69.3Q195.3 69.3 195.4 69.3Q195.5 69.3 195.8 69.3Q196 69.3 196.5 69.3Q197 69.3 197.3 69.3Q197.5 69.3 197.6 69.3Q197.7 69.3 197.8 69.3Q197.8 69.4 197.8 69.5Q197.8 69.6 197.8 69.6Q197.7 69.7 197.6 69.7Q197.5 69.7 197.3 69.8Q197.1 70 196.9 70.4Q196.8 70.7 196.8 71.3V75.8Q196.8 75.9 196.8 76Q196.8 76.2 196.8 76.2Q196.8 76.7 196.8 77Q196.8 77.3 196.8 77.7Q196.8 77.8 196.7 77.9Q196.5 78 196.4 78ZM206.6 78.1Q205.5 78.1 204.6 77.6Q203.7 77.1 203.2 76.1Q202.7 75.1 202.7 73.6Q202.7 72.6 203 71.8Q203.3 71 203.9 70.4Q204.4 69.8 205.1 69.5Q205.8 69.1 206.6 69.1Q207 69.1 207.3 69.2Q207.6 69.3 207.9 69.4Q208.1 69.5 208.2 69.6Q208.4 69.7 208.5 69.7Q208.5 69.7 208.7 69.6Q208.7 69.6 208.9 69.5Q209 69.5 209.1 69.4Q209.2 69.4 209.3 69.4Q209.4 69.5 209.4 69.6V71.4Q209.4 71.5 209.3 71.6Q209.2 71.6 209.1 71.5Q208.8 71 208.5 70.5Q208.2 70.1 207.7 69.8Q207.2 69.6 206.6 69.6Q206.2 69.6 205.7 69.8Q205.2 70 204.8 70.5Q204.4 70.9 204.2 71.7Q204 72.5 204 73.6Q204 74.8 204.2 75.6Q204.4 76.4 204.8 76.8Q205.1 77.3 205.6 77.5Q206.1 77.7 206.6 77.7Q207.3 77.7 207.7 77.5Q208.1 77.2 208.4 76.7Q208.6 76.3 208.6 75.8V75.3Q208.6 74.9 208.4 74.7Q208.2 74.6 207.7 74.6Q207.6 74.6 207.6 74.5Q207.5 74.5 207.5 74.4Q207.5 74.3 207.6 74.3Q207.6 74.2 207.7 74.2Q207.8 74.2 208.2 74.2Q208.6 74.2 209.1 74.2Q209.5 74.2 209.9 74.2Q210.3 74.2 210.4 74.2Q210.5 74.2 210.6 74.3Q210.6 74.3 210.6 74.4Q210.6 74.5 210.6 74.5Q210.5 74.6 210.4 74.6Q210.1 74.6 209.9 74.7Q209.7 74.8 209.7 75.3Q209.7 76.3 209.7 77Q209.7 77.7 209.7 77.7Q209.7 77.8 209.6 77.9Q209.5 77.9 209.4 77.8Q209.4 77.7 209.3 77.5Q209.1 77.3 209.1 77.2Q209 77.1 208.9 77.1Q208.8 77.1 208.8 77.2Q208.5 77.5 207.9 77.8Q207.4 78.1 206.6 78.1ZM215.7 78Q215.5 78 215.5 77.8Q215.5 77.7 215.5 77.7Q215.6 77.6 215.7 77.6Q216 77.6 216.2 77.6Q216.5 77.5 216.7 77.4Q216.8 77.3 216.8 76.9V70.4Q216.8 70 216.7 69.9Q216.5 69.7 216.2 69.7Q216 69.7 215.7 69.7Q215.6 69.7 215.5 69.6Q215.5 69.6 215.5 69.5Q215.5 69.4 215.5 69.3Q215.6 69.3 215.7 69.3Q215.9 69.3 216.4 69.3Q216.9 69.3 217.4 69.3Q217.9 69.3 218.4 69.3Q218.8 69.3 219.1 69.3Q219.2 69.3 219.3 69.3Q219.3 69.4 219.3 69.5Q219.3 69.6 219.3 69.6Q219.2 69.7 219.1 69.7Q218.8 69.7 218.6 69.7Q218.3 69.7 218.1 69.9Q218 70 218 70.4V76.9Q218 77.3 218.1 77.4Q218.3 77.5 218.6 77.6Q218.8 77.6 219.1 77.6Q219.2 77.6 219.3 77.7Q219.3 77.7 219.3 77.8Q219.3 78 219.1 78Q218.8 78 218.4 78Q217.9 78 217.4 78Q216.9 78 216.4 78Q215.9 78 215.7 78ZM231.1 78Q230.9 78 230.8 78Q230.7 77.9 230.6 77.8Q230.5 77.6 230.2 77.1Q229.9 76.6 229.5 75.9Q229.1 75.3 228.6 74.6Q228.1 73.8 227.7 73.1Q227.2 72.4 226.8 71.9Q226.5 71.3 226.2 70.9Q226 70.5 225.9 70.4Q225.9 70.4 225.8 70.4Q225.8 70.4 225.8 70.4V76Q225.8 76.9 226.1 77.2Q226.4 77.6 226.8 77.6Q226.9 77.6 226.9 77.7Q227 77.7 227 77.8Q227 77.9 226.9 77.9Q226.9 78 226.8 78Q226.7 78 226.4 78Q226.1 78 225.6 78Q224.9 78 224.7 78Q224.5 78 224.4 78Q224.3 78 224.2 77.9Q224.2 77.9 224.2 77.8Q224.2 77.7 224.2 77.7Q224.3 77.6 224.4 77.6Q224.8 77.6 225.1 77.2Q225.3 76.9 225.3 76V70.5Q225.3 70 225.1 69.8Q224.8 69.7 224.4 69.7Q224.4 69.7 224.3 69.6Q224.3 69.6 224.3 69.5Q224.3 69.4 224.3 69.3Q224.4 69.3 224.4 69.3Q224.5 69.3 224.9 69.3Q225.2 69.3 226.1 69.3Q226.3 69.3 226.4 69.4Q226.5 69.4 226.6 69.6Q226.7 69.7 226.9 70.1Q227.2 70.4 227.5 71Q227.9 71.5 228.3 72.2Q228.7 72.8 229.2 73.5Q229.6 74.1 229.9 74.7Q230.3 75.2 230.6 75.6Q230.8 76 230.9 76.1Q230.9 76.1 231 76.1Q231 76.1 231 76V71.3Q231 70.4 230.7 70.1Q230.5 69.7 230.1 69.7Q230 69.7 229.9 69.6Q229.9 69.6 229.9 69.5Q229.9 69.4 229.9 69.3Q230 69.3 230.1 69.3Q230.2 69.3 230.4 69.3Q230.7 69.3 231.2 69.3Q231.7 69.3 232 69.3Q232.2 69.3 232.3 69.3Q232.4 69.3 232.4 69.3Q232.5 69.4 232.5 69.5Q232.5 69.6 232.4 69.6Q232.4 69.7 232.3 69.7Q232.1 69.7 231.9 69.8Q231.7 70 231.6 70.4Q231.5 70.7 231.5 71.3V75.8Q231.5 75.9 231.5 76Q231.5 76.2 231.5 76.2Q231.5 76.7 231.5 77Q231.5 77.3 231.5 77.7Q231.5 77.8 231.3 77.9Q231.2 78 231.1 78ZM237.2 78Q237.1 78 237.1 77.9Q237 77.9 237 77.8Q237 77.7 237.1 77.7Q237.1 77.6 237.2 77.6Q237.7 77.6 238 77.5Q238.3 77.4 238.3 76.9V70.4Q238.3 69.9 238.1 69.8Q237.8 69.7 237.2 69.7Q237.2 69.7 237.1 69.6Q237.1 69.6 237.1 69.5Q237.1 69.4 237.1 69.3Q237.2 69.3 237.2 69.3Q237.3 69.3 238.2 69.3Q239 69.3 240.6 69.3Q242.2 69.3 243 69.3Q243.9 69.3 244 69.3Q244.3 69.3 244.3 69.6Q244.3 69.7 244.3 69.9Q244.3 70.2 244.3 70.4Q244.3 70.7 244.3 70.9Q244.4 71.1 244.4 71.1Q244.4 71.2 244.2 71.3Q244 71.3 244 71.2Q243.8 70.9 243.6 70.5Q243.4 70.2 243 70Q242.6 69.7 242 69.7H239.7Q239.4 69.7 239.4 70V73.2Q239.4 73.3 239.6 73.3H240.5Q241 73.3 241.2 73.1Q241.5 73 241.7 72.7Q241.8 72.4 241.9 72.2Q241.9 72.1 242.1 72.1Q242.2 72.1 242.2 72.2Q242.2 72.3 242.2 72.6Q242.2 72.8 242.2 73Q242.2 73.3 242.2 73.6Q242.2 73.8 242.2 74.1Q242.2 74.4 242.2 74.6Q242.2 74.8 242.2 74.9Q242.2 75.1 242.1 75.1Q241.9 75.1 241.9 74.9Q241.8 74.7 241.6 74.5Q241.5 74.2 241.2 74Q241 73.8 240.5 73.8H239.6Q239.4 73.8 239.4 73.9V77.3Q239.4 77.6 239.7 77.6H241.9Q242.5 77.6 242.9 77.4Q243.3 77.2 243.5 76.9Q243.8 76.6 243.9 76.3Q244.1 76 244.2 75.8Q244.2 75.7 244.3 75.7Q244.3 75.7 244.4 75.7Q244.5 75.7 244.5 75.8Q244.5 75.9 244.5 76.1Q244.5 76.4 244.5 76.7Q244.5 77 244.5 77.3Q244.5 77.5 244.5 77.6Q244.5 78 244.1 78Q244.1 78 243.7 78Q243.4 78 242.7 78Q241.9 78 240.8 78Q239.8 78 239 78Q238.2 78 237.7 78Q237.3 78 237.2 78ZM249.4 78Q249.3 78 249.3 77.9Q249.2 77.9 249.2 77.8Q249.2 77.7 249.3 77.7Q249.3 77.6 249.4 77.6Q249.9 77.6 250.2 77.5Q250.5 77.4 250.5 76.9V70.4Q250.5 69.9 250.3 69.8Q250 69.7 249.4 69.7Q249.4 69.7 249.3 69.6Q249.3 69.6 249.3 69.5Q249.3 69.4 249.3 69.3Q249.4 69.3 249.4 69.3Q249.5 69.3 250.4 69.3Q251.2 69.3 252.9 69.3Q254.4 69.3 255.2 69.3Q256.1 69.3 256.2 69.3Q256.5 69.3 256.5 69.6Q256.5 69.7 256.5 69.9Q256.5 70.2 256.5 70.4Q256.5 70.7 256.6 70.9Q256.6 71.1 256.6 71.1Q256.6 71.2 256.4 71.3Q256.3 71.3 256.2 71.2Q256 70.9 255.8 70.5Q255.6 70.2 255.2 70Q254.8 69.7 254.2 69.7H251.9Q251.6 69.7 251.6 70V73.2Q251.6 73.3 251.8 73.3H252.7Q253.2 73.3 253.5 73.1Q253.7 73 253.9 72.7Q254 72.4 254.1 72.2Q254.1 72.1 254.3 72.1Q254.5 72.1 254.5 72.2Q254.5 72.3 254.5 72.6Q254.5 72.8 254.4 73Q254.4 73.3 254.4 73.6Q254.4 73.8 254.4 74.1Q254.5 74.4 254.5 74.6Q254.5 74.8 254.5 74.9Q254.5 75.1 254.3 75.1Q254.1 75.1 254.1 74.9Q254 74.7 253.9 74.5Q253.7 74.2 253.4 74Q253.2 73.8 252.7 73.8H251.8Q251.6 73.8 251.6 73.9V77.3Q251.6 77.6 251.9 77.6H254.1Q254.7 77.6 255.1 77.4Q255.5 77.2 255.7 76.9Q256 76.6 256.1 76.3Q256.3 76 256.4 75.8Q256.4 75.7 256.5 75.7Q256.5 75.7 256.6 75.7Q256.7 75.7 256.7 75.8Q256.7 75.9 256.7 76.1Q256.7 76.4 256.7 76.7Q256.7 77 256.7 77.3Q256.7 77.5 256.7 77.6Q256.7 78 256.3 78Q256.3 78 255.9 78Q255.6 78 254.9 78Q254.2 78 253 78Q252 78 251.2 78Q250.4 78 250 78Q249.5 78 249.4 78ZM268.2 78.1Q267.7 78.1 267.4 77.9Q267.2 77.6 267 77.2Q266.9 76.9 266.8 76.4Q266.7 75.9 266.7 75.5Q266.6 75 266.4 74.7Q266.3 74.3 266 74Q265.7 73.8 265.2 73.8H264Q263.8 73.8 263.8 74V76.9Q263.8 77.3 264 77.5Q264.3 77.6 264.8 77.6Q264.9 77.6 265 77.7Q265 77.7 265 77.8Q265 77.9 265 77.9Q264.9 78 264.8 78Q264.7 78 264.3 78Q263.9 78 263.3 78Q262.7 78 262.3 78Q261.9 78 261.8 78Q261.7 78 261.7 77.9Q261.7 77.9 261.7 77.8Q261.7 77.7 261.7 77.7Q261.7 77.6 261.8 77.6Q262.4 77.6 262.6 77.5Q262.7 77.3 262.7 76.9V70.4Q262.7 70 262.6 69.8Q262.4 69.7 261.8 69.7Q261.7 69.7 261.7 69.5Q261.7 69.3 261.8 69.3Q261.9 69.3 262.3 69.3Q262.7 69.3 263.3 69.3Q263.9 69.3 264.4 69.3Q264.8 69.3 265.2 69.3Q265.5 69.3 265.8 69.3Q266.4 69.3 267.1 69.5Q267.7 69.7 268.1 70.2Q268.5 70.7 268.5 71.5Q268.5 72 268.3 72.3Q268.1 72.7 267.8 72.9Q267.5 73.2 267.1 73.3Q266.7 73.5 266.4 73.6Q266.3 73.6 266.3 73.7Q266.3 73.7 266.4 73.7Q266.8 73.9 267.1 74.2Q267.4 74.6 267.5 75Q267.7 75.4 267.8 75.8Q267.9 76.2 268 76.6Q268.1 77 268.3 77.2Q268.4 77.4 268.6 77.4Q268.8 77.4 268.9 77.3Q269 77.2 269.1 77.1Q269.2 77 269.3 77.1Q269.4 77.2 269.4 77.3Q269.3 77.5 269.2 77.6Q269 77.8 268.8 78Q268.5 78.1 268.2 78.1ZM264 73.4H265.4Q266.2 73.4 266.7 72.9Q267.3 72.3 267.3 71.5Q267.3 71 267.1 70.6Q266.9 70.2 266.6 69.9Q266.2 69.7 265.7 69.7H264.1Q263.8 69.7 263.8 70V73.2Q263.8 73.4 264 73.4ZM289.4 78.1 288.9 77.8 294.5 69.1 295 69.5ZM321.5 78Q321.4 78 321.3 78Q321.2 77.9 321.1 77.8Q321 77.6 320.7 77.1Q320.4 76.6 320 75.9Q319.5 75.3 319.1 74.6Q318.6 73.8 318.2 73.1Q317.7 72.4 317.3 71.9Q317 71.3 316.7 70.9Q316.4 70.5 316.4 70.4Q316.4 70.4 316.3 70.4Q316.3 70.4 316.3 70.4V76Q316.3 76.9 316.6 77.2Q316.9 77.6 317.3 77.6Q317.4 77.6 317.4 77.7Q317.4 77.7 317.4 77.8Q317.4 77.9 317.4 77.9Q317.4 78 317.3 78Q317.2 78 316.9 78Q316.6 78 316.1 78Q315.4 78 315.2 78Q315 78 314.9 78Q314.8 78 314.7 77.9Q314.7 77.9 314.7 77.8Q314.7 77.7 314.7 77.7Q314.8 77.6 314.9 77.6Q315.3 77.6 315.5 77.2Q315.8 76.9 315.8 76V70.5Q315.8 70 315.6 69.8Q315.3 69.7 314.9 69.7Q314.9 69.7 314.8 69.6Q314.8 69.6 314.8 69.5Q314.8 69.4 314.8 69.3Q314.9 69.3 314.9 69.3Q315 69.3 315.4 69.3Q315.7 69.3 316.6 69.3Q316.8 69.3 316.9 69.4Q317 69.4 317.1 69.6Q317.2 69.7 317.4 70.1Q317.7 70.4 318 71Q318.4 71.5 318.8 72.2Q319.2 72.8 319.7 73.5Q320.1 74.1 320.4 74.7Q320.8 75.2 321.1 75.6Q321.3 76 321.4 76.1Q321.4 76.1 321.5 76.1Q321.5 76.1 321.5 76V71.3Q321.5 70.4 321.2 70.1Q320.9 69.7 320.6 69.7Q320.5 69.7 320.4 69.6Q320.4 69.6 320.4 69.5Q320.4 69.4 320.4 69.3Q320.5 69.3 320.6 69.3Q320.7 69.3 320.9 69.3Q321.2 69.3 321.7 69.3Q322.2 69.3 322.4 69.3Q322.7 69.3 322.8 69.3Q322.9 69.3 322.9 69.3Q323 69.4 323 69.5Q323 69.6 322.9 69.6Q322.9 69.7 322.8 69.7Q322.6 69.7 322.4 69.8Q322.2 70 322.1 70.4Q322 70.7 322 71.3V75.8Q322 75.9 322 76Q322 76.2 322 76.2Q322 76.7 322 77Q322 77.3 322 77.7Q322 77.8 321.8 77.9Q321.7 78 321.5 78ZM328 78Q327.9 78 327.9 77.8Q327.9 77.7 327.9 77.7Q327.9 77.6 328 77.6Q328.4 77.6 328.6 77.6Q328.9 77.5 329.1 77.4Q329.2 77.3 329.2 76.9V70.4Q329.2 70 329.1 69.9Q328.9 69.7 328.6 69.7Q328.4 69.7 328 69.7Q327.9 69.7 327.9 69.6Q327.9 69.6 327.9 69.5Q327.9 69.4 327.9 69.3Q327.9 69.3 328 69.3Q328.3 69.3 328.8 69.3Q329.3 69.3 329.8 69.3Q330.2 69.3 330.7 69.3Q331.2 69.3 331.5 69.3Q331.6 69.3 331.6 69.3Q331.7 69.4 331.7 69.5Q331.7 69.6 331.6 69.6Q331.6 69.7 331.5 69.7Q331.2 69.7 330.9 69.7Q330.7 69.7 330.5 69.9Q330.3 70 330.3 70.4V76.9Q330.3 77.3 330.5 77.4Q330.7 77.5 330.9 77.6Q331.2 77.6 331.5 77.6Q331.6 77.6 331.6 77.7Q331.7 77.7 331.7 77.8Q331.7 78 331.5 78Q331.2 78 330.7 78Q330.2 78 329.8 78Q329.3 78 328.8 78Q328.3 78 328 78ZM336.9 78Q336.7 78 336.7 77.8Q336.7 77.7 336.8 77.7Q336.8 77.6 336.9 77.6Q337.2 77.6 337.5 77.6Q337.8 77.5 337.9 77.4Q338.1 77.3 338.1 76.9V70.4Q338.1 70 337.9 69.9Q337.8 69.7 337.5 69.7Q337.2 69.7 336.9 69.7Q336.8 69.7 336.8 69.6Q336.7 69.6 336.7 69.5Q336.7 69.4 336.8 69.3Q336.8 69.3 336.9 69.3Q337.2 69.3 337.7 69.3Q338.2 69.3 338.6 69.3Q339.1 69.3 339.6 69.3Q340.1 69.3 340.4 69.3Q340.5 69.3 340.5 69.3Q340.6 69.4 340.6 69.5Q340.6 69.6 340.5 69.6Q340.5 69.7 340.4 69.7Q340.1 69.7 339.8 69.7Q339.5 69.7 339.4 69.9Q339.2 70 339.2 70.4V76.9Q339.2 77.3 339.4 77.4Q339.5 77.5 339.8 77.6Q340.1 77.6 340.4 77.6Q340.5 77.6 340.5 77.7Q340.6 77.7 340.6 77.8Q340.6 78 340.4 78Q340.1 78 339.6 78Q339.1 78 338.6 78Q338.2 78 337.7 78Q337.2 78 336.9 78ZM349.5 78.1Q348.4 78.1 347.5 77.6Q346.6 77.1 346.1 76.1Q345.6 75.1 345.6 73.6Q345.6 72.6 345.9 71.8Q346.2 71 346.8 70.4Q347.3 69.8 348 69.5Q348.7 69.1 349.5 69.1Q349.9 69.1 350.2 69.2Q350.5 69.3 350.8 69.4Q351 69.5 351.1 69.6Q351.3 69.7 351.4 69.7Q351.5 69.7 351.6 69.6Q351.6 69.6 351.8 69.5Q351.9 69.5 352 69.4Q352.1 69.4 352.2 69.4Q352.3 69.5 352.3 69.6V71.4Q352.3 71.5 352.2 71.6Q352.1 71.6 352 71.5Q351.8 71 351.4 70.5Q351.1 70.1 350.6 69.8Q350.1 69.6 349.5 69.6Q349.1 69.6 348.6 69.8Q348.1 70 347.7 70.5Q347.3 70.9 347.1 71.7Q346.9 72.5 346.9 73.6Q346.9 74.8 347.1 75.6Q347.3 76.4 347.7 76.8Q348 77.3 348.5 77.5Q349 77.7 349.5 77.7Q350.2 77.7 350.6 77.5Q351 77.2 351.3 76.7Q351.5 76.3 351.5 75.8V75.3Q351.5 74.9 351.3 74.7Q351.1 74.6 350.6 74.6Q350.5 74.6 350.5 74.5Q350.4 74.5 350.4 74.4Q350.4 74.3 350.5 74.3Q350.5 74.2 350.6 74.2Q350.7 74.2 351.1 74.2Q351.5 74.2 352 74.2Q352.4 74.2 352.8 74.2Q353.2 74.2 353.3 74.2Q353.4 74.2 353.5 74.3Q353.5 74.3 353.5 74.4Q353.5 74.5 353.5 74.5Q353.4 74.6 353.3 74.6Q353 74.6 352.8 74.7Q352.6 74.8 352.6 75.3Q352.6 76.3 352.6 77Q352.6 77.7 352.6 77.7Q352.6 77.8 352.5 77.9Q352.4 77.9 352.3 77.8Q352.3 77.7 352.2 77.5Q352 77.3 352 77.2Q351.9 77.1 351.8 77.1Q351.7 77.1 351.7 77.2Q351.4 77.5 350.8 77.8Q350.3 78.1 349.5 78.1ZM358.3 78Q358.2 78 358.1 77.9Q358.1 77.9 358.1 77.8Q358.1 77.7 358.1 77.7Q358.2 77.6 358.3 77.6Q358.6 77.6 358.9 77.4Q359.1 77.2 359.3 76.9Q359.4 76.7 359.6 76.3Q359.7 75.8 360 75.2Q360.2 74.5 360.5 73.8Q360.7 73.1 361 72.3Q361.2 71.6 361.5 71Q361.7 70.4 361.8 69.9Q362 69.5 362 69.4Q362.1 69.3 362.2 69.2Q362.3 69.1 362.5 69.1Q362.8 69.1 362.9 69.4Q363 69.5 363.1 70Q363.3 70.5 363.6 71.3Q363.8 72 364.1 72.8Q364.4 73.6 364.7 74.4Q364.9 75.1 365.1 75.7Q365.4 76.3 365.5 76.6Q365.6 77 365.8 77.3Q366 77.6 366.4 77.6Q366.5 77.6 366.6 77.7Q366.6 77.7 366.6 77.8Q366.6 77.9 366.6 77.9Q366.5 78 366.4 78Q366.3 78 366 78Q365.7 78 365.1 78Q364.6 78 364.2 78Q363.9 78 363.7 78Q363.7 78 363.6 77.9Q363.6 77.9 363.6 77.8Q363.6 77.7 363.6 77.7Q363.7 77.6 363.7 77.6Q364.2 77.6 364.4 77.5Q364.5 77.3 364.3 76.9Q364.3 76.8 364.3 76.8Q364.3 76.8 364.3 76.6Q364.2 76.5 364.1 76.1Q364 75.8 363.8 75.2Q363.7 75 363.6 75H360.6Q360.5 75 360.4 75.1Q360.3 75.4 360.2 75.7Q360.1 76.1 360.1 76.4Q360 76.7 360 76.9Q360 77.2 360.2 77.4Q360.4 77.6 360.7 77.6Q360.8 77.6 360.8 77.7Q360.9 77.7 360.9 77.8Q360.9 77.9 360.8 77.9Q360.8 78 360.7 78Q360.6 78 360.3 78Q360 78 359.5 78Q359 78 358.7 78Q358.4 78 358.3 78ZM360.8 74.6H363.4Q363.5 74.6 363.5 74.6Q363.6 74.5 363.5 74.4Q363.4 73.9 363.2 73.3Q363 72.7 362.8 72.1Q362.6 71.6 362.4 71.2Q362.3 70.8 362.3 70.6Q362.2 70.5 362.1 70.5Q362.1 70.5 362 70.6Q362 70.7 361.9 71Q361.7 71.4 361.6 71.8Q361.4 72.3 361.2 72.8Q361.1 73.3 360.9 73.7Q360.8 74.2 360.7 74.4Q360.6 74.6 360.8 74.6ZM373.7 78Q373.6 78 373.6 77.9Q373.5 77.9 373.5 77.8Q373.5 77.7 373.6 77.7Q373.6 77.6 373.7 77.6Q374.2 77.6 374.5 77.5Q374.7 77.3 374.7 76.9V70Q374.7 69.7 374.5 69.7H373.6Q373.2 69.7 372.9 69.9Q372.5 70.1 372.3 70.3Q372.1 70.6 372 70.9Q371.8 71.2 371.7 71.4Q371.7 71.5 371.5 71.5Q371.4 71.5 371.4 71.3Q371.4 71.3 371.4 71.1Q371.4 70.8 371.4 70.5Q371.4 70.2 371.4 69.9Q371.4 69.7 371.4 69.6Q371.5 69.3 371.8 69.3Q371.9 69.3 372.8 69.3Q373.8 69.3 375.3 69.3Q376.8 69.3 377.8 69.3Q378.7 69.3 378.8 69.3Q379.1 69.3 379.1 69.6Q379.1 69.7 379.2 69.9Q379.2 70.2 379.2 70.5Q379.2 70.8 379.2 71.1Q379.2 71.3 379.2 71.3Q379.2 71.5 379.1 71.5Q379 71.5 378.9 71.5Q378.9 71.5 378.8 71.4Q378.7 71.2 378.6 70.9Q378.5 70.6 378.2 70.3Q378 70.1 377.7 69.9Q377.4 69.7 376.9 69.7H376Q375.8 69.7 375.8 70V76.9Q375.8 77.3 376 77.4Q376.2 77.6 376.8 77.6Q376.9 77.6 376.9 77.7Q376.9 77.7 376.9 77.8Q376.9 77.9 376.9 77.9Q376.9 78 376.8 78Q376.6 78 376.3 78Q376 78 375.2 78Q374.5 78 374.1 78Q373.8 78 373.7 78ZM384 78Q384 78 383.9 77.9Q383.9 77.9 383.9 77.8Q383.9 77.7 383.9 77.7Q384 77.6 384 77.6Q384.4 77.6 384.6 77.4Q384.9 77.2 385.1 76.9Q385.2 76.7 385.3 76.3Q385.5 75.8 385.7 75.2Q386 74.5 386.2 73.8Q386.5 73.1 386.8 72.3Q387 71.6 387.2 71Q387.5 70.4 387.6 69.9Q387.8 69.5 387.8 69.4Q387.9 69.3 388 69.2Q388 69.1 388.3 69.1Q388.6 69.1 388.7 69.4Q388.7 69.5 388.9 70Q389.1 70.5 389.3 71.3Q389.6 72 389.9 72.8Q390.2 73.6 390.4 74.4Q390.7 75.1 390.9 75.7Q391.1 76.3 391.2 76.6Q391.4 77 391.6 77.3Q391.8 77.6 392.2 77.6Q392.3 77.6 392.3 77.7Q392.4 77.7 392.4 77.8Q392.4 77.9 392.3 77.9Q392.3 78 392.2 78Q392.1 78 391.8 78Q391.5 78 390.9 78Q390.4 78 390 78Q389.7 78 389.5 78Q389.4 78 389.4 77.9Q389.4 77.9 389.4 77.8Q389.4 77.7 389.4 77.7Q389.4 77.6 389.5 77.6Q390 77.6 390.1 77.5Q390.3 77.3 390.1 76.9Q390.1 76.8 390.1 76.8Q390.1 76.8 390 76.6Q390 76.5 389.9 76.1Q389.8 75.8 389.6 75.2Q389.5 75 389.4 75H386.3Q386.2 75 386.2 75.1Q386.1 75.4 386 75.7Q385.9 76.1 385.8 76.4Q385.8 76.7 385.8 76.9Q385.8 77.2 386 77.4Q386.2 77.6 386.5 77.6Q386.6 77.6 386.6 77.7Q386.6 77.7 386.6 77.8Q386.6 77.9 386.6 77.9Q386.6 78 386.5 78Q386.4 78 386.1 78Q385.8 78 385.3 78Q384.8 78 384.5 78Q384.2 78 384 78ZM386.6 74.6H389.2Q389.3 74.6 389.3 74.6Q389.3 74.5 389.3 74.4Q389.1 73.9 388.9 73.3Q388.7 72.7 388.6 72.1Q388.4 71.6 388.2 71.2Q388.1 70.8 388 70.6Q388 70.5 387.9 70.5Q387.9 70.5 387.8 70.6Q387.8 70.7 387.6 71Q387.5 71.4 387.4 71.8Q387.2 72.3 387 72.8Q386.8 73.3 386.7 73.7Q386.5 74.2 386.4 74.4Q386.4 74.6 386.6 74.6Z"/></g>
<g class="f f2"><path fill="#2A2620" d="M69.1 150Q68.8 150 68.5 149.7Q68.3 149.4 68.3 149Q68.3 148.6 68.5 148.3Q68.8 148 69.1 148Q70.4 148 71.6 147.9Q72.9 147.7 73.7 147Q74.5 146.3 74.5 144.6V132.5Q74.5 131.6 73.9 130.6Q73.5 129.8 72.6 128.2Q71.7 126.5 70.5 124.5Q69.3 122.4 68 120.2Q66.7 118.1 65.6 116.2Q64.5 114.3 63.8 113Q62.7 111.1 61.8 110Q61 109 60 108.7Q59.1 108.4 57.6 108.4Q56.7 108.4 56.7 107.4Q56.7 106.4 57.6 106.4Q58.2 106.4 60.1 106.5Q62.1 106.6 64.4 106.6Q67 106.6 69.1 106.5Q71.2 106.4 71.6 106.4Q72.4 106.4 72.4 107.4Q72.4 108.4 71.6 108.4Q69.7 108.4 69 109.2Q68.2 110 69.2 111.7Q69.7 112.7 70.6 114.4Q71.6 116.1 72.8 118.2Q73.9 120.2 75.1 122.2Q76.2 124.3 77.1 125.8Q78 127.4 78.4 128Q78.6 128.3 78.9 128.4Q79.2 128.4 79.4 128Q80.7 125.6 82.3 122.8Q83.8 120 85.2 117.4Q86.6 114.8 87.4 113.2Q88.3 111.3 87.3 109.8Q86.2 108.4 83.8 108.4Q83 108.4 83 107.4Q83 106.4 83.8 106.4Q84.4 106.4 86.2 106.5Q87.9 106.6 90.8 106.6Q93.4 106.6 94.8 106.5Q96.2 106.4 96.8 106.4Q97.6 106.4 97.6 107.4Q97.6 108.4 96.8 108.4Q95.2 108.4 93.4 109.6Q91.6 110.8 89.8 113.8Q89.4 114.5 88.5 116Q87.6 117.5 86.5 119.5Q85.4 121.4 84.2 123.5Q83.1 125.5 82.1 127.3Q81.1 129 80.6 130Q80.2 130.7 80 131.2Q79.8 131.7 79.8 132.4V144.6Q79.8 146.3 80.5 147Q81.3 147.7 82.4 147.9Q83.5 148 84.7 148Q85.2 148 85.4 148.3Q85.6 148.6 85.6 149Q85.6 149.4 85.4 149.7Q85.2 150 84.7 150Q84.2 150 83.4 149.9Q82.6 149.9 81.2 149.8Q79.8 149.8 77.2 149.8Q73.6 149.8 71.8 149.9Q70 150 69.1 150ZM112.3 150.7Q108.8 150.7 106.7 148.6Q104.6 146.5 104.6 142.5V129.2Q104.6 128 104.4 127.3Q104.1 126.7 103.3 126.5Q102.8 126.5 102.3 126.4Q101.8 126.4 101.5 126.3Q100.7 126.1 100.7 125.3Q100.7 124.9 100.9 124.6Q101.1 124.3 101.5 124.3Q101.7 124.3 102.6 124.3Q103.5 124.3 104.7 124.3Q105.9 124.3 106.8 124.2Q107.8 124.2 108.1 124.2Q109.5 124.2 109.5 125.6V141.6Q109.5 144.4 110.9 145.8Q112.3 147.1 114.7 147.1Q117.6 147.1 118.9 145.3Q120.3 143.4 120.3 140.9V129.2Q120.3 128 120.1 127.3Q119.8 126.7 119 126.5Q118.5 126.5 118 126.4Q117.6 126.4 117.2 126.3Q116.4 126.1 116.4 125.3Q116.4 124.9 116.6 124.6Q116.8 124.3 117.3 124.3Q117.4 124.3 118.3 124.3Q119.2 124.3 120.4 124.3Q121.6 124.3 122.6 124.2Q123.6 124.2 123.9 124.2Q125.2 124.2 125.2 125.6V145.1Q125.2 146.5 125.5 147Q125.8 147.4 126.6 147.7Q126.9 147.7 127.2 147.8Q127.5 147.8 127.8 148Q128.6 148.1 128.6 148.9Q128.6 149.8 127.8 149.9Q127.5 149.9 126.3 149.9Q125 149.9 123.7 150Q122.4 150 121.9 150Q120.6 150 120.6 148.7Q120.5 148.4 120.5 147.8Q120.4 147.2 120.4 146.8Q120.3 146 119.7 146.7Q119.3 147.2 118.4 148.2Q117.4 149.2 116 149.9Q114.5 150.7 112.3 150.7ZM134.9 161.4Q132.9 161.4 131.8 160.4Q130.7 159.4 130.7 158Q130.7 156.5 131.7 155.6Q132.6 154.7 134 154.7Q135 154.7 135.5 155.2Q136 155.8 136.3 156.4Q136.6 157.1 136.9 157.6Q137.2 158.2 137.7 158.2Q138.6 158.2 139.4 157.3Q140.2 156.4 141 155.1Q141.7 153.8 142.2 152.7Q142.8 151.5 143 150.9Q143.6 149.5 143.1 148.3Q143 148 142.4 146.5Q141.7 145.1 140.9 143Q140 141 139 138.8Q138.1 136.5 137.2 134.5Q136.3 132.4 135.7 131Q135.1 129.5 134.9 129.2Q134.2 127.6 133.5 126.9Q132.9 126.2 131.7 126.2Q131.3 126.2 131.1 125.9Q130.9 125.6 130.9 125.2Q130.9 124.8 131.1 124.5Q131.3 124.2 131.7 124.2Q132.4 124.2 133.7 124.3Q135 124.4 136.4 124.4Q137.8 124.4 139.4 124.3Q141 124.2 141.6 124.2Q142 124.2 142.2 124.5Q142.5 124.8 142.5 125.2Q142.5 125.6 142.2 125.9Q142 126.2 141.6 126.2Q140.3 126.2 139.9 126.7Q139.5 127.3 139.7 128Q139.9 128.3 140.5 129.9Q141.1 131.5 142 133.5Q142.9 135.6 143.7 137.6Q144.6 139.7 145.2 141.1Q145.8 142.5 145.8 142.7Q146.1 143.4 146.4 142.7Q146.5 142.4 147 141.2Q147.5 140 148.1 138.4Q148.8 136.9 149.4 135.2Q150 133.6 150.4 132.4Q150.9 131.2 151 130.7Q151.8 128.4 150.8 127.3Q149.9 126.2 148.5 126.2Q148.1 126.2 147.9 125.9Q147.7 125.6 147.7 125.2Q147.7 124.8 147.9 124.5Q148.1 124.2 148.5 124.2Q149.2 124.2 150.2 124.3Q151.2 124.4 152.7 124.4Q154 124.4 155.1 124.3Q156.2 124.2 156.8 124.2Q157.2 124.2 157.4 124.5Q157.6 124.8 157.6 125.2Q157.6 125.6 157.4 125.9Q157.2 126.2 156.8 126.2Q156 126.2 154.9 127.2Q153.9 128.2 152.8 130.8Q152.7 131.2 152 132.9Q151.4 134.6 150.5 136.9Q149.6 139.2 148.7 141.5Q147.8 143.9 147.1 145.6Q146.4 147.4 146.1 148.1Q144.6 151.8 143 154.8Q141.4 157.9 139.5 159.6Q137.6 161.4 134.9 161.4ZM168.6 150.7Q166.7 150.7 165 149.8Q163.3 148.9 162.3 147.3Q161.2 145.7 161.2 143.6Q161.2 140.5 163.2 138.4Q165.2 136.4 168.5 135.3Q171.8 134.3 175.8 134.3Q176.4 134.3 176.4 133.7V132Q176.4 129 175.2 127.3Q174 125.6 171.7 125.6Q169.9 125.6 169.1 126.1Q168.3 126.5 168.7 127.7Q169.5 129.4 168.5 130.6Q167.5 131.8 165.9 131.8Q164.5 131.8 163.7 130.9Q162.9 130 162.9 128.9Q162.9 127.6 164 126.3Q165.1 125.1 167.1 124.3Q169.2 123.5 172 123.5Q177 123.5 179.2 125.6Q181.5 127.8 181.5 131.6V143.3Q181.5 145.3 182 146.2Q182.5 147.2 183.3 147.2Q184 147.2 184.5 146.7Q185.1 146.1 185.8 146.8Q186.3 147.2 185.8 148Q185.2 148.9 184.2 149.6Q183.3 150.4 181.6 150.4Q180.1 150.4 178.9 149.6Q177.7 148.7 177 147.2Q176.7 146.5 176.1 147.2Q175.6 147.8 174.6 148.7Q173.5 149.5 172 150.1Q170.5 150.7 168.6 150.7ZM171.3 147.5Q172.9 147.5 174.1 146.6Q175.2 145.7 175.8 144.4Q176.4 143.2 176.4 142V137Q176.4 136.1 175.6 136.1Q171.6 136.1 169.2 137.6Q166.8 139.1 166.8 142.7Q166.8 144.8 167.7 145.8Q168.5 146.9 169.5 147.2Q170.6 147.5 171.3 147.5ZM224.4 150.7Q220.5 150.7 217.1 149.2Q213.7 147.6 211.1 144.6Q208.5 141.7 207 137.5Q205.5 133.4 205.5 128.3Q205.5 123.1 207 119Q208.6 114.8 211.2 111.9Q213.9 108.9 217.3 107.3Q220.7 105.7 224.4 105.7Q228.1 105.7 231.6 107.3Q235 108.9 237.6 111.9Q240.3 114.8 241.9 119Q243.4 123.1 243.4 128.3Q243.4 133.4 241.9 137.5Q240.4 141.7 237.8 144.6Q235.2 147.6 231.8 149.2Q228.3 150.7 224.4 150.7ZM224.4 148.6Q227.7 148.6 230.6 146.7Q233.4 144.8 235.2 140.4Q237 136 237 128.3Q237 120.6 235.2 116.1Q233.4 111.7 230.6 109.8Q227.7 107.9 224.4 107.9Q221.2 107.9 218.3 109.8Q215.5 111.7 213.7 116.1Q211.9 120.6 211.9 128.3Q211.9 136 213.7 140.4Q215.5 144.8 218.3 146.7Q221.2 148.6 224.4 148.6ZM262.2 150.7Q260.2 150.7 258.4 150.2Q256.5 149.7 255.1 149Q253.8 148.4 253 149Q252.7 149.2 252.4 149.5Q252.1 149.8 251.9 150.1Q251.4 150.6 250.8 150.4Q250.2 150.2 250.2 149.4V142.3Q250.2 141.5 250.8 141.4Q251.5 141.3 251.8 141.8Q253.9 145.1 256.4 146.7Q258.9 148.2 262.3 148.2Q264.9 148.2 266.8 147.1Q268.6 145.9 268.6 143.8Q268.6 142.1 267.3 141.3Q266 140.5 264 140Q261.9 139.5 259.7 139Q257.4 138.5 255.4 137.6Q253.3 136.7 252.1 135.2Q250.8 133.6 250.8 130.9Q250.8 129 251.7 127.3Q252.6 125.6 254.6 124.6Q256.6 123.5 259.8 123.5Q261.6 123.5 263.2 123.9Q264.8 124.3 266.1 124.9Q267.7 125.5 268.3 125Q268.5 124.9 268.9 124.6Q269.2 124.3 269.4 124.1Q269.9 123.7 270.3 123.8Q270.7 124 270.7 124.7V131Q270.7 131.7 270.1 131.8Q269.4 132 269.2 131.4Q267.9 128.2 265.5 126.9Q263.1 125.7 260.6 125.7Q257.7 125.7 256.2 127Q254.8 128.3 254.8 129.8Q254.8 131.3 256.1 132.1Q257.4 132.9 259.4 133.4Q261.4 133.8 263.6 134.2Q265.9 134.7 267.9 135.6Q269.9 136.4 271.2 138.1Q272.5 139.7 272.5 142.5Q272.5 145.9 269.8 148.3Q267 150.7 262.2 150.7ZM288.4 150.7Q285 150.7 282.9 148.6Q280.8 146.5 280.8 142.5V129.2Q280.8 128 280.5 127.3Q280.3 126.7 279.4 126.5Q279 126.5 278.5 126.4Q278 126.4 277.6 126.3Q276.9 126.1 276.9 125.3Q276.9 124.9 277.1 124.6Q277.3 124.3 277.7 124.3Q277.9 124.3 278.8 124.3Q279.7 124.3 280.9 124.3Q282 124.3 283 124.2Q284 124.2 284.3 124.2Q285.7 124.2 285.7 125.6V141.6Q285.7 144.4 287.1 145.8Q288.5 147.1 290.8 147.1Q293.7 147.1 295.1 145.3Q296.5 143.4 296.5 140.9V129.2Q296.5 128 296.2 127.3Q296 126.7 295.2 126.5Q294.7 126.5 294.2 126.4Q293.7 126.4 293.4 126.3Q292.6 126.1 292.6 125.3Q292.6 124.9 292.8 124.6Q293 124.3 293.4 124.3Q293.6 124.3 294.5 124.3Q295.4 124.3 296.6 124.3Q297.7 124.3 298.7 124.2Q299.7 124.2 300 124.2Q301.4 124.2 301.4 125.6V145.1Q301.4 146.5 301.7 147Q301.9 147.4 302.7 147.7Q303 147.7 303.4 147.8Q303.7 147.8 304 148Q304.8 148.1 304.8 148.9Q304.8 149.8 303.9 149.9Q303.7 149.9 302.4 149.9Q301.2 149.9 299.8 150Q298.5 150 298 150Q296.7 150 296.7 148.7Q296.7 148.4 296.6 147.8Q296.6 147.2 296.6 146.8Q296.5 146 295.9 146.7Q295.5 147.2 294.5 148.2Q293.6 149.2 292.1 149.9Q290.7 150.7 288.4 150.7ZM320.5 161.4Q315.8 161.4 313.2 160.6Q310.5 159.8 309.4 158.3Q308.4 156.8 308.4 154.9Q308.4 152.7 309.6 151.4Q310.9 150.1 312.6 149.4Q312.9 149.3 312.8 149.1Q312.8 148.9 312.6 148.8Q311 148.1 309.9 147.2Q308.9 146.2 308.9 144.7Q308.9 143 309.9 142Q310.9 141.1 312.1 140.6Q313.3 140.2 313.6 140.1Q314.4 139.8 313.7 139.3Q311.9 138.1 310.9 136.3Q309.9 134.5 309.9 132.4Q309.9 130 311.3 127.9Q312.7 125.9 315.1 124.7Q317.5 123.5 320.5 123.5Q322.5 123.5 324.2 124Q326 124.6 327.4 125.6Q328 126 328.5 125.5Q328.9 124.9 330.1 123.9Q331.2 123 332.9 123Q334.6 123 335.3 124Q336 124.9 336 125.8Q336 126.5 335.4 127.4Q334.8 128.2 333.6 128.2Q332.7 128.2 332.3 127.8Q331.8 127.3 331.4 126.9Q331 126.5 330.3 126.5Q330 126.5 329.8 126.7Q329.6 126.8 329.5 127Q329.2 127.3 329.6 127.7Q331.1 129.7 331.1 132.4Q331.1 134.9 329.7 136.9Q328.3 139 325.9 140.2Q323.5 141.4 320.5 141.4Q319 141.4 317.6 141.3Q316.2 141.2 315.3 141.2Q314.2 141.2 313.4 141.7Q312.6 142.1 312.6 142.9Q312.6 143.8 314.1 144.3Q315.6 144.8 317.7 145Q319.8 145.2 321.9 145.3Q324 145.4 325.3 145.6Q329.1 146 331.3 147.7Q333.6 149.3 333.6 152.6Q333.6 157.1 330.1 159.2Q326.7 161.4 320.5 161.4ZM320.3 159.6Q325.4 159.6 327.9 158Q330.4 156.4 330.4 154.6Q330.4 153 329.1 152.1Q327.7 151.1 325.7 150.7Q323.7 150.2 321.5 150Q319.4 149.8 317.8 149.7Q317 149.6 316.4 149.7Q315.7 149.8 315.6 149.8Q314.5 150.2 313.4 151.6Q312.3 152.9 312.3 154.7Q312.3 157 314.4 158.3Q316.5 159.6 320.3 159.6ZM320.5 139.6Q323.1 139.6 324.5 137.6Q325.9 135.6 325.9 132.4Q325.9 129.2 324.5 127.2Q323.1 125.2 320.5 125.2Q317.9 125.2 316.5 127.2Q315.1 129.2 315.1 132.4Q315.1 135.6 316.5 137.6Q317.9 139.6 320.5 139.6ZM340.6 150Q339.8 150 339.8 149Q339.8 148.1 340.6 148.1Q342.7 148.1 343.3 147.4Q343.8 146.6 343.8 145V129.2Q343.8 127.7 343.5 127.2Q343.2 126.7 342.4 126.6Q342 126.5 341.3 126.4Q340.6 126.4 340.2 126.3Q339.4 126.1 339.4 125.3Q339.4 124.9 339.7 124.6Q339.9 124.3 340.3 124.3Q340.5 124.3 341.4 124.3Q342.4 124.3 343.7 124.3Q345 124.3 346 124.2Q347.1 124.2 347.4 124.2Q348.7 124.2 348.7 125.6V145Q348.7 146.6 349.2 147.4Q349.8 148.1 351.5 148.1Q352.3 148.1 352.3 149Q352.3 150 351.5 150Q350.9 150 349.3 149.9Q347.7 149.9 346.3 149.9Q344.8 149.9 343.1 149.9Q341.3 150 340.6 150ZM345.9 115.6Q344.5 115.6 343.5 114.6Q342.6 113.6 342.6 112.3Q342.6 110.9 343.5 110Q344.5 109 345.9 109Q347.2 109 348.2 110Q349.2 110.9 349.2 112.3Q349.2 113.6 348.2 114.6Q347.2 115.6 345.9 115.6Z"/>
<circle cx="362.1" cy="146" r="4" fill="#A85E36"/></g>
<g class="f f3"><path fill="#2A2620" d="M71.2 190.6Q71 190.6 70.9 190.6Q70.8 190.5 70.8 190.3Q70.8 190.2 70.8 189.5Q70.8 188.8 70.8 187.7Q70.9 186.5 70.9 185Q70.9 183.5 70.9 181.9Q70.9 180.5 70.7 180Q70.6 179.8 70.7 179.7Q70.8 179.7 70.9 179.7Q71.2 179.8 71.6 180.1Q72.1 180.3 72.4 180.5H75.7Q75.9 180.5 75.9 180.4Q76.1 180.3 76.2 180.1Q76.3 179.9 76.5 179.8Q76.6 179.6 76.9 179.8Q77 179.8 77.2 180Q77.5 180.2 77.8 180.4Q78 180.6 78.1 180.7Q78.2 180.8 78.2 180.9Q78.2 181.1 78.1 181.1Q77.9 181.2 77.8 181.2Q77.6 181.3 77.5 181.4Q77.4 181.4 77.4 181.5Q77.3 181.5 77.3 181.7Q77.3 183.3 77.4 184.7Q77.4 186.1 77.4 187.3Q77.5 188.4 77.5 189.2Q77.5 189.9 77.5 190Q77.5 190.2 77.1 190.3Q76.8 190.5 76.5 190.5Q76.3 190.5 76.2 190.4Q76.1 190.4 76.1 190.2V189.7H72.2V190.2Q72.2 190.4 71.8 190.5Q71.4 190.6 71.2 190.6ZM65.4 190.6Q65 190.6 65 190.2Q65 190.2 65 189.7Q65.1 189.2 65.1 188.4Q65.1 187.7 65.1 186.9Q65.2 186.2 65.2 185.6V185Q64.3 186.3 63.2 187.4Q62 188.4 61 189.1Q60.7 189 60.8 188.7Q61.5 188.1 62.3 187.2Q63.1 186.2 63.7 185.2Q64.4 184.1 64.8 183H62.2Q62.2 183 61.9 183Q61.5 183 61.1 183.1L61 182.2Q61.5 182.4 61.8 182.4Q62.2 182.4 62.2 182.4H65.2V180.6Q65.2 179.8 65 179.6Q64.9 179.5 65 179.4Q65.1 179.3 65.2 179.4Q65.5 179.4 66.1 179.5Q66.7 179.7 67 179.8Q67.2 179.8 67.1 180Q67.1 180.2 66.9 180.2Q66.7 180.2 66.5 180.3Q66.3 180.4 66.3 180.7V182.4H67.6Q67.7 182.4 67.8 182.3Q67.9 182.2 68.1 182Q68.3 181.7 68.3 181.6Q68.5 181.5 68.7 181.6Q68.9 181.8 69.3 182Q69.6 182.3 69.8 182.5Q70 182.6 69.9 182.8Q69.9 183 69.7 183H66.3V184.6Q66.8 184.7 67.4 184.9Q68 185.2 68.5 185.5Q69 185.9 69.3 186.4Q69.5 186.8 69.5 187.3Q69.4 187.8 69.1 187.9Q68.9 188 68.7 187.9Q68.5 187.8 68.4 187.4Q68.1 186.8 67.5 186.1Q67 185.5 66.3 185.1V185.6Q66.3 186.2 66.3 186.9Q66.3 187.7 66.4 188.4Q66.4 189 66.4 189.5Q66.4 190 66.4 190.1Q66.4 190.3 66.1 190.4Q65.8 190.6 65.4 190.6ZM67.1 196.9Q66.8 196.8 66.6 196.8Q66.3 196.7 66.1 196.5Q65.9 196.3 65.9 195.8V192.3Q65.9 191.6 65.7 191.4Q65.7 191.3 65.7 191.2Q65.8 191.1 65.9 191.1Q66.1 191.1 66.5 191.2Q66.8 191.3 67.2 191.4Q67.6 191.5 67.8 191.5Q68 191.5 67.9 191.8Q67.9 192 67.7 192Q67.5 192 67.3 192.1Q67.1 192.1 67.1 192.4V195.2Q67.1 195.4 67.2 195.5Q67.2 195.6 67.5 195.7Q67.7 195.7 68.4 195.7Q69 195.7 69.8 195.7Q70.6 195.7 71.3 195.7Q72 195.6 72.4 195.5Q72.6 195.4 72.8 195.4Q72.9 195.3 73 195.1Q73.1 194.9 73.2 194.4Q73.4 194 73.5 193.5Q73.6 193 73.7 192.6Q73.8 192.2 73.8 192Q74.1 191.9 74.3 192.1Q74.3 192.2 74.2 192.6Q74.2 193 74.2 193.5Q74.1 194 74.1 194.4Q74.1 194.8 74.1 194.9Q74.1 195.1 74.1 195.1Q74.2 195.2 74.4 195.2Q74.6 195.3 74.8 195.4Q74.9 195.6 74.9 195.8Q74.9 196.1 74.7 196.3Q74.5 196.5 74 196.6Q73.5 196.7 72.7 196.8Q72 196.8 71.1 196.9Q70.3 196.9 69.5 196.9Q68.6 196.9 68 196.9Q67.4 196.9 67.1 196.9ZM72.2 189.1H76.1V186.8H72.2ZM72.2 183.4H76.1V181.1H72.2ZM72.2 186.2H76.1V184H72.2ZM78.5 196Q78.3 196 78.1 195.9Q77.8 195.9 77.7 195.4Q77.4 194.5 76.9 193.5Q76.4 192.6 75.4 191.9Q75.3 191.6 75.6 191.5Q76.8 192 77.8 192.7Q78.7 193.5 79 194.4Q79.1 194.9 79 195.4Q78.8 195.8 78.5 196ZM61.8 196.6Q61.3 196.7 61.1 196.4Q60.9 196.1 61 195.8Q61 195.5 61.3 195.3Q62 194.8 62.5 194Q63 193.2 63.3 191.8Q63.5 191.6 63.7 191.8Q63.8 193.9 63.4 195.2Q62.9 196.4 61.8 196.6ZM71.4 193.8Q71.2 193.9 71 193.8Q70.8 193.7 70.7 193.4Q70.4 192.8 69.8 192.1Q69.3 191.4 68.5 191.1Q68.4 190.8 68.7 190.7Q69.5 190.9 70.4 191.2Q71.2 191.6 71.6 192.3Q71.9 192.8 71.7 193.2Q71.6 193.6 71.4 193.8ZM89.5 194.9Q88.8 194.9 88.1 194.3Q87.4 193.7 87 192.5Q86.5 191.3 86.4 189.5Q86.4 188.8 86.4 188.2Q86.4 187.5 86.4 186.9Q86.5 186.2 86.5 185.5Q86.5 184.7 86.5 184Q86.4 183.6 86.3 183.2Q86.1 182.9 86 182.7Q86 182.6 86.1 182.5Q86.2 182.4 86.3 182.5Q86.9 182.8 87.4 183.2Q87.9 183.7 87.9 184.4Q87.9 184.8 87.9 185.3Q87.8 185.7 87.8 186.2Q87.7 186.8 87.7 187.6Q87.6 188.4 87.7 189.4Q87.7 190.6 88 191.3Q88.2 192 88.4 192.3Q88.8 192.8 89.2 192.2Q89.4 191.8 89.8 191.1Q90.2 190.5 90.6 189.9Q91 189.2 91.2 188.9Q91.5 188.8 91.6 189.1Q91.5 189.3 91.3 189.8Q91.1 190.2 90.8 190.8Q90.6 191.4 90.4 191.9Q90.2 192.5 90.1 192.9Q90 193.1 90.1 193.3Q90.1 193.4 90.2 193.5Q90.2 193.6 90.3 193.7Q90.4 193.8 90.4 194Q90.4 194.3 90.2 194.6Q90 194.8 89.5 194.9ZM99.3 191.3Q99 191.3 98.9 191.2Q98.7 191.1 98.7 190.6Q98.6 189.5 98.3 188.5Q98 187.5 97.3 186.7Q96.7 185.9 95.5 185.5Q95.4 185.3 95.6 185.1Q97 185.3 98 186Q99.1 186.7 99.8 187.8Q100.4 188.9 100.3 190.2Q100.3 190.6 100 190.9Q99.7 191.2 99.3 191.3ZM116.3 196.5Q114.4 196.5 113.2 196Q112 195.5 111.9 194.3Q111.9 193.4 112.4 192.8Q113 192.2 113.9 191.6Q114.3 191.3 114.8 191Q115.3 190.7 115.9 190.3Q115.9 189.6 115.7 189Q115.5 188.4 115.1 188.1Q114.8 187.7 114.2 187.7Q113.5 187.7 112.9 188.1Q112.2 188.4 111.7 189Q111.2 189.6 110.8 190.2Q110.5 190.8 110.2 190.8Q109.9 190.8 109.6 190.4Q109.3 190 109.4 189.6Q109.6 189.3 109.9 189Q110.4 188.5 111 187.8Q111.6 187.1 112.2 186.2Q112.9 185.3 113.4 184.5Q113.1 184.5 112.7 184.5Q112.4 184.5 112.1 184.5Q111 184.5 110.5 183.9Q110.1 183.4 110.1 182.5Q110.3 182.3 110.5 182.4Q110.6 183.1 111 183.3Q111.5 183.4 112.1 183.4Q112.5 183.4 113 183.4Q113.5 183.4 114 183.3Q114.2 183 114.3 182.7Q114.5 182.4 114.6 182.1Q114.8 181.6 114.7 181.1Q114.5 180.7 113.9 180.5Q113.7 180.2 114 180.1Q114.4 180.1 115 180.3Q115.6 180.5 115.9 180.7Q116.3 180.9 116.3 181.2Q116.3 181.5 116.1 181.8Q115.9 181.9 115.8 182.1Q115.6 182.3 115.5 182.4Q115.5 182.6 115.4 182.7Q115.3 182.9 115.1 183.1Q115.8 183 116.2 182.8Q116.4 182.7 116.6 182.7Q116.8 182.7 117.1 183Q117.6 183.3 117.6 183.6Q117.5 183.9 117.2 184Q116.8 184.1 116 184.2Q115.3 184.3 114.4 184.4Q113.8 185.3 113.2 186.2Q112.7 187.1 112.3 187.7Q112.7 187.4 113.2 187.2Q113.7 187 114.3 187Q115.2 187 115.8 187.5Q116.4 188 116.7 188.7Q117 187.8 117.6 187Q118.2 186.2 119 185.7Q119.8 185.2 120.7 185.2Q121.7 185.2 122.3 185.5Q122.9 185.8 123.1 186.2Q123.3 186.6 123.2 187Q123.1 187.4 122.7 187.6Q122 187.8 121.1 188.3Q120.2 188.8 119.2 189.3Q118.2 189.9 117.2 190.5Q117.3 191.3 117.3 192.1Q117.3 192.8 117.3 193.3Q117.3 193.8 117.1 194Q116.8 194.2 116.5 194.2Q116.2 194.2 116 194.1Q115.9 193.9 115.9 193.6Q115.9 193.5 115.9 193.4Q115.9 193.3 116 193.1Q116 192.7 116 192.2Q116 191.8 116 191.2Q115.5 191.5 115.1 191.8Q114.7 192.1 114.4 192.3Q113.8 192.8 113.6 193.2Q113.3 193.6 113.4 194.1Q113.5 194.8 114.3 195Q115.1 195.2 116.4 195.2Q117.4 195.2 118.3 195.1Q119.2 195 119.7 194.8Q120 194.7 120.1 194.7Q120.3 194.7 120.5 194.8Q121.3 195.2 121.4 195.6Q121.4 196 120.9 196.1Q120.1 196.3 118.9 196.4Q117.6 196.5 116.3 196.5ZM117 189.7Q118 189.1 119 188.5Q120 187.9 120.8 187.4Q121.6 186.9 121.5 186.5Q121.5 186 120.7 186Q119.7 186 119 186.6Q118.3 187.1 117.8 187.9Q117.3 188.8 117 189.7ZM135.2 197Q135 197.2 134.7 197.1Q134.5 197.1 134.3 196.8Q133.5 195.6 132.5 194.5Q131.4 193.4 130.3 192.7Q130.2 192.6 130.3 192.5Q130.3 192.4 130.4 192.3Q131.3 192.4 132.3 192.6Q133.3 192.9 134.1 193.3Q135 193.7 135.5 194.4Q135.9 194.9 136 195.4Q136 196 135.8 196.4Q135.6 196.9 135.2 197ZM154.2 195.9Q153.8 195.1 154.4 194.5Q154.8 193.9 155.3 192.9Q155.9 192 156.4 190.9Q156.9 189.8 157.4 188.7Q157.9 187.5 158.3 186.4Q157.5 186.7 156.7 186.9Q156 187.1 155.7 187.1Q155.2 187.1 154.9 186.8Q154.6 186.5 154.5 186.1Q154.3 185.6 154.3 185.3Q154.5 185.1 154.7 185.3Q154.9 185.8 155.8 185.8Q156.4 185.8 157.1 185.7Q157.9 185.5 158.7 185.4Q158.9 184.6 159.1 183.9Q159.3 183.2 159.4 182.7Q159.5 182.1 159.2 181.9Q159.1 181.8 158.9 181.8Q158.7 181.7 158.5 181.7Q158.3 181.5 158.6 181.3Q158.9 181.3 159.4 181.3Q159.9 181.4 160.3 181.5Q160.7 181.7 160.9 182.1Q161.1 182.5 160.8 182.8Q160.6 183 160.5 183.2Q160.3 183.3 160.2 183.6Q160.2 183.9 160 184.3Q159.9 184.7 159.7 185.2Q160 185.2 160.3 185.2Q160.6 185.1 160.9 185.1Q162 185.1 162.6 185.7Q163.2 186.4 163.2 187.3Q163.2 189.2 162.8 190.9Q162.3 192.5 161.8 193.7Q161.4 194.6 160.9 195Q160.4 195.4 159.8 195.4Q159.4 195.4 159.3 195.2Q159.1 195 159 194.6Q158.8 194.2 158.5 194Q158.1 193.8 157.5 193.5Q157.4 193.2 157.7 193.1Q158 193.2 158.6 193.4Q159.1 193.6 159.5 193.6Q159.8 193.6 160.1 193.6Q160.3 193.5 160.5 193.1Q160.8 192.5 161.2 191.6Q161.6 190.7 161.8 189.6Q162.1 188.4 162.1 187.4Q162.1 186.8 161.8 186.4Q161.6 185.9 160.9 185.9Q160.2 185.9 159.4 186.1Q159 187.3 158.5 188.7Q157.9 190.1 157.3 191.5Q156.8 192.9 156.3 194Q155.7 195.2 155.4 195.8Q155.1 196.2 154.7 196.3Q154.3 196.4 154.2 195.9ZM168.9 191.3Q168.7 191.3 168.5 191.2Q168.3 191.2 168.1 190.9Q167.9 190.6 167.6 190.5Q167.3 190.3 166.5 190.3Q166.3 190.1 166.6 189.9Q167 189.9 167.5 189.9Q168 189.9 168.4 189.7Q168.8 189.6 168.8 189.2Q168.9 188.7 168.6 188.2Q168.3 187.6 167.8 187.1Q167.3 186.6 166.8 186.2Q166.3 185.7 165.9 185.5Q165.8 185.2 166.1 185.2Q167.2 185.7 168.2 186.3Q169.2 186.9 169.8 187.7Q170.4 188.4 170.4 189.3Q170.4 190.2 170 190.7Q169.6 191.1 168.9 191.3ZM177.9 195.7Q177.7 195.5 177.6 195Q177.6 194.5 177.8 194.1Q178.5 193.1 179.1 191.7Q179.8 190.3 180.4 188.7Q180.9 187.1 181.4 185.5Q180.3 185.7 179.6 185.7Q178.5 185.7 178 185.1Q177.6 184.6 177.6 183.7Q177.8 183.5 178 183.7Q178.1 184.3 178.6 184.5Q179 184.7 179.6 184.7Q180.1 184.7 180.6 184.6Q181.1 184.5 181.7 184.4Q181.8 183.7 181.9 183.1Q182 182.5 182.1 182Q182.1 181.7 182.1 181.5Q182.1 181.3 181.9 181.2Q181.9 181.1 181.6 181.1Q181.4 181 181.3 181Q181.1 180.8 181.3 180.6Q181.7 180.6 182.1 180.6Q182.6 180.7 183 180.9Q183.2 181 183.4 181.2Q183.6 181.4 183.7 181.7Q183.7 181.9 183.5 182.1Q183.3 182.3 183.2 182.5Q183.1 182.7 183 182.9Q183 183.2 182.9 183.5Q182.8 183.8 182.8 184.1Q183.7 183.8 184.3 183.5Q184.4 183.4 184.7 183.4Q184.9 183.5 185.3 183.7Q185.5 183.9 185.5 184.2Q185.5 184.4 185.2 184.6Q184.8 184.8 184 185Q183.3 185.2 182.5 185.3Q182.1 186.7 181.6 188.3Q181.2 189.8 180.7 191.2Q180.2 192.7 179.8 193.8Q179.3 194.9 179 195.5Q178.8 195.9 178.5 195.9Q178.1 195.9 177.9 195.7ZM188.3 195.4Q185.9 195.2 184.7 194.1Q183.5 192.9 183.6 190.7Q183.7 190.6 183.8 190.6Q183.9 190.6 184 190.7Q184.1 191.3 184.3 191.8Q184.5 192.4 184.9 192.8Q185.4 193.3 186.2 193.6Q187.1 193.9 188.4 193.9Q188.9 193.9 189.5 193.9Q190.1 193.9 190.6 193.9Q191.2 193.9 191.5 193.8Q191.8 193.8 192.1 194Q192.6 194.3 192.7 194.6Q192.8 194.9 192.7 195.1Q192.6 195.3 192.4 195.4Q191.7 195.5 190.6 195.5Q189.4 195.5 188.3 195.4ZM188.2 187.6Q188 187.6 188 187.5Q188 187.3 188 187.2Q188.4 187 188.8 186.8Q189.2 186.6 189.6 186.5Q189.7 186.4 189.8 186.3Q189.8 186.2 189.6 186.1Q189.1 185.8 188.2 185.8Q187.3 185.7 186.4 185.8Q186.3 185.7 186.3 185.6Q186.3 185.5 186.3 185.4Q187 185.2 187.9 185.1Q188.8 185.1 189.7 185.2Q190.6 185.3 191.1 185.6Q191.5 185.8 191.7 186Q191.9 186.2 192.1 186.6Q192.2 186.9 192.1 187.2Q192 187.5 191.7 187.6Q191.5 187.7 191.2 187.5Q190.8 187.2 190.2 187.1Q189.7 187.1 189.2 187.2Q188.7 187.4 188.3 187.6Q188.2 187.6 188.2 187.6ZM206 196.7Q205.9 196.6 205.9 196.4Q205.9 196.3 206 196.2Q207 196 208 195.8Q209.1 195.5 209.9 195.1Q210.8 194.6 211.4 193.9Q212 193.1 212.1 192Q212.2 190.7 211.6 189.9Q211.1 189 209.8 189Q209 188.9 208.2 189.3Q207.5 189.7 206.9 190.3Q206.4 190.9 206.3 191.7Q206.2 192.3 205.8 192.4Q205.3 192.6 204.8 192.2Q204.3 191.9 204.2 191.5Q204 191.1 204 190.3Q204 189.7 204.2 188.7Q204.3 187.8 204.6 186.7Q204.8 185.6 205 184.6Q204.6 184.5 204.3 184.5Q204 184.5 203.6 184.4Q201.4 184.1 201.5 182.1Q201.6 182 201.7 182Q201.8 182 201.9 182.1Q202 182.7 202.5 183Q203.1 183.3 203.7 183.4Q204.1 183.5 204.4 183.5Q204.8 183.6 205.1 183.6Q205.3 182.5 205.3 181.7Q205.4 181.4 205.3 181.2Q205.3 181.1 205.1 181Q205 180.9 204.7 180.9Q204.5 180.9 204.3 181Q204.1 180.7 204.3 180.5Q204.6 180.4 205.1 180.4Q205.6 180.4 206 180.5Q206.5 180.5 206.8 180.8Q207.1 181.2 206.9 181.5Q207.2 181.7 207.6 181.9Q208 182.2 208.5 182.4Q208.9 182.7 209.2 182.7Q209.5 182.7 209.8 182.8Q210.1 182.9 210.3 183.1Q210.6 183.3 210.4 183.6Q210.3 183.9 209.9 184Q209.1 184.3 208 184.4Q207 184.6 205.9 184.6Q205.7 185.6 205.6 186.7Q205.4 187.8 205.3 188.7Q205.3 189.5 205.4 189.8Q205.5 190 205.6 190.1Q205.8 190.1 205.9 190Q206.4 189.6 206.9 189.1Q207.5 188.7 208.2 188.4Q208.9 188.1 209.8 188.1Q210.9 188.2 211.8 188.6Q212.7 189.1 213.2 189.9Q213.8 190.8 213.7 192Q213.6 193.2 213.1 194Q212.6 194.8 211.8 195.3Q211 195.8 210 196.1Q209.1 196.3 208 196.5Q207 196.6 206 196.7ZM206.1 183.6Q207.2 183.5 207.9 183.3Q208.2 183.2 207.9 182.9Q207.8 182.7 207.4 182.4Q206.9 182 206.7 181.9Q206.6 182 206.4 182.5Q206.3 183 206.1 183.6ZM226.7 195.3Q226.5 195.4 226.2 195.4Q225.9 195.4 225.6 195.2Q224.9 194.7 224.4 193.6Q223.9 192.5 223.9 190.6Q223.9 189.3 224.1 188.2Q224.3 187.2 224.5 186.3Q224.7 185.5 224.9 184.7Q225 183.9 225 183.2Q225 182.7 224.8 182.4Q224.7 182 224.5 181.7Q224.5 181.6 224.6 181.5Q224.7 181.4 224.8 181.4Q225.4 181.8 225.9 182.4Q226.4 183 226.4 183.8Q226.4 184.4 226.2 185Q226 185.6 225.7 186.3Q225.4 187.1 225.2 188.1Q225 189.1 225 190.5Q225 191.2 225.1 191.6Q225.2 192.1 225.4 192.5Q225.5 192.6 225.6 192.6Q225.7 192.6 225.7 192.4Q225.9 191.8 226.2 191Q226.5 190.3 226.7 189.6Q227 188.9 227.1 188.5Q227.4 188.4 227.5 188.7Q227.4 189.1 227.2 189.8Q227 190.5 226.8 191.3Q226.6 192.2 226.6 193.1Q226.5 193.5 226.6 193.6Q226.7 193.8 226.9 194.2Q227.1 194.5 227 194.8Q226.9 195.1 226.7 195.3ZM234.2 194.4Q232.6 194.4 231.7 194.1Q230.7 193.7 230.3 193Q229.8 192.3 229.6 191.4Q229.7 191.2 229.8 191.2Q229.9 191.2 230 191.3Q230.3 192 230.9 192.4Q231.4 192.8 232.2 192.9Q233 193 234.2 193Q235.1 193 235.8 192.9Q236.6 192.8 237.3 192.7Q237.5 192.6 237.6 192.6Q237.7 192.7 237.8 192.7Q237.8 192.7 237.8 192.7Q238.5 193.1 238.5 193.5Q238.6 194 237.9 194.1Q236.3 194.4 234.2 194.4ZM233.4 184.6Q232.1 184.7 231.3 184.3Q230.5 184 229.9 183.3Q230 183 230.3 183Q230.6 183.3 231.4 183.4Q232.2 183.5 233.1 183.4Q233.9 183.3 234.7 183.2Q235.5 183 235.9 182.9Q236.2 182.8 236.5 182.8Q236.8 182.9 237.1 183.2Q237.6 183.7 237.4 183.9Q237.3 184.2 236.7 184.3Q236.2 184.4 235.3 184.5Q234.4 184.6 233.4 184.6ZM250.3 196.9Q250.2 196.9 250.1 196.7Q250 196.6 250.1 196.4Q250.9 196 251.7 195.5Q252.5 194.9 253.2 194.1Q253.8 193.3 254.1 192.2Q254.1 192.2 254 192.2Q254 192.3 253.9 192.3Q253.4 192.4 253 192.2Q252.5 192.1 252.4 191.7Q252.2 191.3 252 191.1Q251.8 190.9 251.6 190.6Q251.4 190.3 251.3 189.9Q251.1 188.7 251.5 188Q251.9 187.3 252.8 187.1Q253.5 186.9 254.2 187.3Q254.2 186.7 254.2 186.1Q254.1 185.6 254.1 185.2V185.1Q252 185.3 250 185.8Q249.4 185.9 248.8 186.1Q248.3 186.4 247.8 186.4Q247.2 186.4 246.8 186Q246.4 185.7 246.2 185.1Q246 184.6 245.9 184.1Q246 183.8 246.3 184Q246.4 184.4 246.8 184.6Q247.2 184.8 247.9 184.8Q249.2 184.8 250.8 184.6Q252.5 184.4 254.1 184.2Q254.1 183.1 254.1 182.5Q254.1 181.9 254.2 181.5Q254.2 181.2 254.2 181Q254.1 180.9 254 180.8Q253.9 180.7 253.7 180.7Q253.5 180.7 253.3 180.7Q253.1 180.5 253.3 180.3Q253.7 180.2 254.1 180.2Q254.5 180.2 254.9 180.3Q255.1 180.4 255.4 180.6Q255.6 180.8 255.7 181Q255.8 181.2 255.6 181.5Q255.4 181.7 255.3 182.4Q255.2 183 255.1 184.1Q255.6 184 256.1 184Q256.5 183.9 256.9 183.9Q257.1 183.9 257.1 183.8Q257.1 183.7 256.9 183.7Q256.7 183.5 256.3 183.3Q255.8 183 255.6 182.9Q255.6 182.6 255.8 182.6Q256.1 182.7 256.8 182.9Q257.4 183.2 258.1 183.4Q258.5 183.5 258.8 183.5Q259.2 183.5 259.8 183.5Q260.4 183.4 260.8 183.6Q261.2 183.7 261.7 184.1Q262.1 184.5 261.9 184.9Q261.7 185.2 261.2 185.1Q259.9 184.9 258.3 184.9Q256.8 184.8 255.1 185V185.1Q255.1 186.3 255.2 187Q255.2 187.7 255.3 188.1Q255.3 188.5 255.4 188.8Q255.6 189.2 255.7 189.6Q255.7 190 255.7 190.5Q255.7 192 255.2 193.1Q254.7 194.2 253.9 194.9Q253 195.7 252.1 196.2Q251.2 196.6 250.3 196.9ZM253.6 191Q254.1 190.9 254.2 190.6Q254.3 190.2 254.3 189.8V189.6Q254.1 188.6 253.8 188.3Q253.4 187.9 253 188Q252.3 188.1 252.2 188.6Q252.1 189.1 252.2 189.8Q252.4 190.4 252.8 190.7Q253.1 191 253.6 191ZM277.4 196.1Q275.6 196.1 274.8 195.4Q274 194.7 274.2 193.7Q274.3 193 274.9 192.6Q275.5 192.2 276.3 192.3Q277.4 192.4 278 193Q278.6 193.7 278.9 194.8Q279.9 194.4 280.6 193.6Q281.3 192.8 281.3 191.5Q281.3 190.2 280.4 189.3Q279.6 188.4 278.1 188.4Q277 188.5 276.1 188.9Q275.2 189.4 274.4 190.1Q273.7 190.8 273.1 191.7Q272.5 192.6 272 193.4Q271.7 193.9 271.3 193.9Q270.9 193.9 270.8 193.6Q270.6 193.1 270.6 192.7Q270.7 192.3 271.1 191.9Q271.6 191.5 272.3 190.7Q272.9 189.9 273.7 189Q274.4 188.1 275.1 187.1Q275.8 186.1 276.5 185.3Q277.1 184.4 277.6 183.7Q278 183 278.2 182.7Q278.5 182.3 278.4 182.1Q278.3 181.9 277.9 182Q276.8 182.2 275.6 183.2Q275.2 183.4 275 183.7Q274.8 183.9 274.2 184Q273.9 184 273.6 183.6Q273.2 183.3 273 182.9Q272.8 182.4 272.7 182.2Q272.8 181.9 273 182Q273.3 182.3 273.6 182.4Q273.8 182.5 274.2 182.5Q274.6 182.5 275.2 182.2Q275.8 182 276.5 181.6Q277.3 181.3 278.2 181.1Q278.8 180.9 279 180.9Q279.3 180.9 279.6 181.1Q281.3 182.1 279.9 182.9Q279.6 183 279.1 183.6Q278.5 184.2 277.9 184.9Q277.3 185.7 276.7 186.4Q276 187.2 275.5 187.9Q275 188.5 274.8 188.8Q275.5 188.3 276.3 187.9Q277.2 187.6 278.1 187.6Q279.6 187.5 280.6 188.1Q281.7 188.6 282.2 189.5Q282.8 190.4 282.8 191.5Q282.9 192.9 282.1 194Q281.4 195 280.2 195.6Q279 196.1 277.4 196.1ZM277.4 195H277.6Q277.4 194.4 277.1 194Q276.8 193.5 276.3 193.4Q275.9 193.3 275.6 193.4Q275.3 193.5 275.2 193.8Q275.2 194.1 275.3 194.3Q275.4 194.6 275.9 194.8Q276.5 195 277.4 195ZM294.2 197.1Q293.4 197.1 292.7 196.7Q292.1 196.3 291.7 195.7Q291.3 195 291.3 194.2Q291.3 193.4 291.7 192.7Q292.1 192 292.7 191.6Q293.4 191.2 294.2 191.2Q295 191.2 295.7 191.6Q296.4 192 296.8 192.7Q297.2 193.4 297.2 194.2Q297.2 195 296.8 195.7Q296.4 196.3 295.7 196.7Q295 197.1 294.2 197.1ZM294.2 196.4Q295.1 196.4 295.7 195.7Q296.3 195.1 296.3 194.2Q296.3 193.3 295.7 192.7Q295.1 192 294.2 192Q293.3 192 292.7 192.7Q292.1 193.3 292.1 194.2Q292.1 195.1 292.7 195.7Q293.3 196.4 294.2 196.4Z"/></g>
<g class="f f4"><path fill="#57514A" d="M62.7 222Q62.7 222 62.6 221.9Q62.6 221.9 62.6 221.8Q62.6 221.7 62.6 221.7Q62.7 221.6 62.7 221.6Q63.3 221.6 63.5 221.5Q63.8 221.3 63.8 220.9V214Q63.8 213.7 63.5 213.7H62.7Q62.2 213.7 61.9 213.9Q61.6 214.1 61.4 214.3Q61.2 214.6 61 214.9Q60.9 215.2 60.8 215.4Q60.7 215.5 60.6 215.5Q60.4 215.5 60.4 215.3Q60.4 215.3 60.4 215.1Q60.4 214.8 60.5 214.5Q60.5 214.2 60.5 213.9Q60.5 213.7 60.5 213.6Q60.5 213.3 60.8 213.3Q60.9 213.3 61.9 213.3Q62.8 213.3 64.4 213.3Q65.9 213.3 66.8 213.3Q67.8 213.3 67.9 213.3Q68.2 213.3 68.2 213.6Q68.2 213.7 68.2 213.9Q68.2 214.2 68.2 214.5Q68.3 214.8 68.3 215.1Q68.3 215.3 68.3 215.3Q68.3 215.5 68.1 215.5Q68.1 215.5 68 215.5Q67.9 215.5 67.9 215.4Q67.8 215.2 67.7 214.9Q67.5 214.6 67.3 214.3Q67.1 214.1 66.8 213.9Q66.5 213.7 66 213.7H65.1Q64.8 213.7 64.8 214V220.9Q64.8 221.3 65 221.4Q65.2 221.6 65.8 221.6Q65.9 221.6 66 221.7Q66 221.7 66 221.8Q66 221.9 66 221.9Q65.9 222 65.8 222Q65.7 222 65.4 222Q65.1 222 64.3 222Q63.5 222 63.2 222Q62.9 222 62.7 222ZM72.5 222.1Q71.8 222.1 71.4 221.7Q70.9 221.3 70.9 220.5V217.8Q70.9 217.6 70.9 217.5Q70.8 217.3 70.7 217.3Q70.6 217.3 70.5 217.3Q70.4 217.3 70.3 217.3Q70.2 217.2 70.2 217.1Q70.2 217 70.2 216.9Q70.2 216.9 70.3 216.9Q70.4 216.9 70.5 216.9Q70.7 216.9 71 216.9Q71.2 216.9 71.4 216.8Q71.6 216.8 71.6 216.8Q71.9 216.8 71.9 217.1V220.3Q71.9 220.9 72.2 221.2Q72.5 221.4 73 221.4Q73.5 221.4 73.8 221.1Q74.1 220.7 74.1 220.2V217.8Q74.1 217.6 74 217.5Q74 217.3 73.8 217.3Q73.7 217.3 73.6 217.3Q73.5 217.3 73.5 217.3Q73.3 217.2 73.3 217.1Q73.3 217 73.3 216.9Q73.4 216.9 73.5 216.9Q73.5 216.9 73.7 216.9Q73.9 216.9 74.1 216.9Q74.3 216.9 74.5 216.8Q74.7 216.8 74.8 216.8Q75.1 216.8 75.1 217.1V221Q75.1 221.3 75.1 221.4Q75.2 221.5 75.3 221.5Q75.4 221.5 75.5 221.6Q75.5 221.6 75.6 221.6Q75.7 221.6 75.7 221.8Q75.7 222 75.6 222Q75.5 222 75.3 222Q75 222 74.8 222Q74.5 222 74.4 222Q74.1 222 74.1 221.7Q74.1 221.7 74.1 221.6Q74.1 221.4 74.1 221.4Q74.1 221.2 74 221.3Q73.9 221.4 73.7 221.6Q73.5 221.8 73.2 222Q72.9 222.1 72.5 222.1ZM77.5 222Q77.3 222 77.3 221.8Q77.3 221.6 77.5 221.6Q77.9 221.6 78.1 221.5Q78.3 221.4 78.3 221V217.8Q78.3 217.6 78.2 217.5Q78.2 217.3 78 217.3Q77.9 217.3 77.7 217.3Q77.5 217.3 77.4 217.2Q77.2 217.2 77.2 217.1Q77.2 216.9 77.4 216.9Q77.4 216.9 77.7 216.9Q77.9 216.9 78.1 216.8Q78.4 216.8 78.6 216.8Q78.9 216.8 78.9 216.8Q79.2 216.8 79.2 217.1V217.7Q79.2 217.8 79.2 217.8Q79.3 217.8 79.3 217.8Q79.5 217.5 79.8 217.3Q80 217 80.3 216.9Q80.6 216.7 81 216.7Q81.6 216.7 81.8 216.9Q82.1 217.2 82.1 217.6Q82.1 217.8 82 218Q81.8 218.2 81.5 218.2Q81.1 218.2 81 218Q80.8 217.8 80.8 217.7Q80.8 217.7 80.8 217.6Q80.8 217.4 80.8 217.3Q80.8 217.2 80.6 217.2Q80.4 217.2 80.1 217.4Q79.9 217.6 79.7 217.9Q79.5 218.2 79.4 218.5Q79.3 218.9 79.3 219.2V221Q79.3 221.3 79.5 221.5Q79.7 221.6 80.1 221.6Q80.3 221.6 80.3 221.8Q80.3 222 80.1 222Q80 222 79.7 222Q79.4 222 78.8 222Q78.3 222 77.9 222Q77.6 222 77.5 222ZM83.9 222Q83.8 222 83.8 221.8Q83.8 221.6 83.9 221.6Q84.3 221.6 84.4 221.5Q84.5 221.4 84.5 221V217.8Q84.5 217.6 84.5 217.5Q84.5 217.4 84.3 217.3Q84.2 217.3 84.1 217.3Q84 217.3 83.9 217.2Q83.8 217.2 83.8 217.1Q83.8 217 83.8 216.9Q83.8 216.9 83.9 216.9Q84 216.9 84.1 216.9Q84.3 216.9 84.5 216.9Q84.8 216.9 84.9 216.8Q85.1 216.8 85.2 216.8Q85.5 216.8 85.5 217.1V217.6Q85.5 217.6 85.5 217.6Q85.5 217.6 85.6 217.6Q85.8 217.2 86.2 217Q86.6 216.7 87.1 216.7Q87.5 216.7 87.8 216.8Q88.2 217 88.4 217.3Q88.6 217.7 88.6 218.4V221Q88.6 221.3 88.7 221.5Q88.8 221.6 89.1 221.6Q89.2 221.6 89.2 221.8Q89.2 222 89.1 222Q88.9 222 88.7 222Q88.4 222 88.1 222Q87.8 222 87.5 222Q87.3 222 87.1 222Q87 222 87 221.8Q87 221.6 87.1 221.6Q87.5 221.6 87.5 221.5Q87.6 221.4 87.6 221V218.5Q87.6 217.9 87.4 217.6Q87.2 217.4 86.7 217.4Q86.4 217.4 86.1 217.6Q85.9 217.8 85.7 218.1Q85.5 218.4 85.5 218.8V221Q85.5 221.3 85.6 221.5Q85.7 221.6 85.9 221.6Q86.1 221.6 86.1 221.8Q86.1 222 85.9 222Q85.8 222 85.5 222Q85.3 222 85 222Q84.7 222 84.4 222Q84.1 222 83.9 222ZM91.2 222Q91.1 222 91.1 221.8Q91.1 221.6 91.2 221.6Q91.6 221.6 91.8 221.5Q91.9 221.3 91.9 221V217.8Q91.9 217.5 91.8 217.4Q91.7 217.3 91.6 217.3Q91.5 217.3 91.4 217.3Q91.2 217.3 91.1 217.3Q91 217.2 91 217.1Q91 217 91 216.9Q91.1 216.9 91.2 216.9Q91.2 216.9 91.4 216.9Q91.6 216.9 91.8 216.9Q92.1 216.9 92.3 216.8Q92.5 216.8 92.6 216.8Q92.8 216.8 92.8 217.1V221Q92.8 221.3 93 221.5Q93.1 221.6 93.4 221.6Q93.6 221.6 93.6 221.8Q93.6 222 93.4 222Q93.3 222 93 222Q92.6 222 92.4 222Q92.1 222 91.7 222Q91.4 222 91.2 222ZM92.3 215.1Q92 215.1 91.8 214.9Q91.6 214.7 91.6 214.5Q91.6 214.2 91.8 214Q92 213.8 92.3 213.8Q92.5 213.8 92.7 214Q92.9 214.2 92.9 214.5Q92.9 214.7 92.7 214.9Q92.5 215.1 92.3 215.1ZM95.6 222Q95.4 222 95.4 221.8Q95.4 221.6 95.6 221.6Q96 221.6 96.1 221.5Q96.2 221.4 96.2 221V217.8Q96.2 217.6 96.2 217.5Q96.1 217.4 96 217.3Q95.9 217.3 95.8 217.3Q95.6 217.3 95.6 217.2Q95.4 217.2 95.4 217.1Q95.4 217 95.5 216.9Q95.5 216.9 95.6 216.9Q95.6 216.9 95.8 216.9Q96 216.9 96.2 216.9Q96.4 216.9 96.6 216.8Q96.8 216.8 96.9 216.8Q97.1 216.8 97.1 217.1V217.6Q97.1 217.6 97.2 217.6Q97.2 217.6 97.2 217.6Q97.5 217.2 97.9 217Q98.2 216.7 98.7 216.7Q99.1 216.7 99.5 216.8Q99.8 217 100 217.3Q100.3 217.7 100.3 218.4V221Q100.3 221.3 100.4 221.5Q100.4 221.6 100.7 221.6Q100.9 221.6 100.9 221.8Q100.9 222 100.7 222Q100.6 222 100.3 222Q100 222 99.8 222Q99.5 222 99.2 222Q98.9 222 98.8 222Q98.6 222 98.6 221.8Q98.6 221.6 98.8 221.6Q99.1 221.6 99.2 221.5Q99.3 221.4 99.3 221V218.5Q99.3 217.9 99.1 217.6Q98.8 217.4 98.4 217.4Q98.1 217.4 97.8 217.6Q97.5 217.8 97.3 218.1Q97.2 218.4 97.2 218.8V221Q97.2 221.3 97.2 221.5Q97.3 221.6 97.6 221.6Q97.7 221.6 97.7 221.8Q97.7 222 97.6 222Q97.5 222 97.2 222Q97 222 96.7 222Q96.4 222 96.1 222Q95.7 222 95.6 222ZM105.1 224.3Q104.2 224.3 103.7 224.1Q103.1 224 102.9 223.7Q102.7 223.4 102.7 223Q102.7 222.5 103 222.3Q103.2 222 103.5 221.9Q103.6 221.9 103.6 221.8Q103.6 221.8 103.5 221.8Q103.2 221.6 103 221.4Q102.8 221.2 102.8 220.9Q102.8 220.6 103 220.4Q103.2 220.2 103.4 220.1Q103.7 220 103.8 220Q103.9 220 103.8 219.9Q103.4 219.6 103.2 219.3Q103 218.9 103 218.5Q103 218 103.3 217.6Q103.6 217.2 104 216.9Q104.5 216.7 105.1 216.7Q105.5 216.7 105.9 216.8Q106.2 216.9 106.5 217.1Q106.6 217.2 106.7 217.1Q106.8 217 107 216.8Q107.3 216.6 107.6 216.6Q108 216.6 108.1 216.8Q108.2 217 108.2 217.2Q108.2 217.3 108.1 217.5Q108 217.6 107.7 217.6Q107.6 217.6 107.5 217.6Q107.4 217.5 107.3 217.4Q107.2 217.3 107.1 217.3Q107 217.3 107 217.3Q106.9 217.4 106.9 217.4Q106.9 217.5 106.9 217.5Q107.2 217.9 107.2 218.5Q107.2 219 107 219.4Q106.7 219.8 106.2 220Q105.7 220.3 105.1 220.3Q104.8 220.3 104.5 220.3Q104.3 220.2 104.1 220.2Q103.9 220.2 103.7 220.3Q103.5 220.4 103.5 220.6Q103.5 220.8 103.8 220.9Q104.1 221 104.6 221Q105 221 105.4 221.1Q105.8 221.1 106.1 221.1Q106.8 221.2 107.3 221.5Q107.7 221.9 107.7 222.5Q107.7 223.4 107.1 223.8Q106.4 224.3 105.1 224.3ZM105.1 223.9Q106.1 223.9 106.6 223.6Q107.1 223.3 107.1 222.9Q107.1 222.6 106.8 222.4Q106.6 222.2 106.2 222.1Q105.8 222 105.3 222Q104.9 222 104.6 221.9Q104.4 221.9 104.3 221.9Q104.2 222 104.1 222Q103.9 222 103.7 222.3Q103.5 222.6 103.5 222.9Q103.5 223.4 103.9 223.7Q104.3 223.9 105.1 223.9ZM105.1 219.9Q105.6 219.9 105.9 219.5Q106.2 219.1 106.2 218.5Q106.2 217.8 105.9 217.4Q105.6 217 105.1 217Q104.6 217 104.3 217.4Q104 217.8 104 218.5Q104 219.1 104.3 219.5Q104.6 219.9 105.1 219.9ZM114.5 222Q114.3 222 114.3 221.8Q114.3 221.6 114.5 221.6Q114.9 221.6 115 221.5Q115.1 221.3 115.1 221V217.8Q115.1 217.5 115.1 217.4Q115 217.3 114.9 217.3Q114.8 217.3 114.6 217.3Q114.5 217.3 114.4 217.3Q114.3 217.2 114.3 217.1Q114.3 217 114.3 216.9Q114.4 216.9 114.4 216.9Q114.5 216.9 114.7 216.9Q114.9 216.9 115.1 216.9Q115.4 216.9 115.6 216.8Q115.8 216.8 115.9 216.8Q116.1 216.8 116.1 217.1V221Q116.1 221.3 116.2 221.5Q116.3 221.6 116.7 221.6Q116.9 221.6 116.9 221.8Q116.9 222 116.7 222Q116.6 222 116.2 222Q115.9 222 115.6 222Q115.4 222 115 222Q114.6 222 114.5 222ZM115.6 215.1Q115.3 215.1 115.1 214.9Q114.9 214.7 114.9 214.5Q114.9 214.2 115.1 214Q115.3 213.8 115.6 213.8Q115.8 213.8 116 214Q116.2 214.2 116.2 214.5Q116.2 214.7 116 214.9Q115.8 215.1 115.6 215.1ZM118.9 222Q118.7 222 118.7 221.8Q118.7 221.6 118.9 221.6Q119.2 221.6 119.4 221.5Q119.5 221.4 119.5 221V217.8Q119.5 217.6 119.4 217.5Q119.4 217.4 119.2 217.3Q119.2 217.3 119 217.3Q118.9 217.3 118.9 217.2Q118.7 217.2 118.7 217.1Q118.7 217 118.7 216.9Q118.8 216.9 118.9 216.9Q118.9 216.9 119.1 216.9Q119.3 216.9 119.5 216.9Q119.7 216.9 119.9 216.8Q120.1 216.8 120.1 216.8Q120.4 216.8 120.4 217.1V217.6Q120.4 217.6 120.5 217.6Q120.5 217.6 120.5 217.6Q120.8 217.2 121.1 217Q121.5 216.7 122 216.7Q122.4 216.7 122.7 216.8Q123.1 217 123.3 217.3Q123.5 217.7 123.5 218.4V221Q123.5 221.3 123.6 221.5Q123.7 221.6 124 221.6Q124.2 221.6 124.2 221.8Q124.2 222 124 222Q123.9 222 123.6 222Q123.3 222 123 222Q122.8 222 122.5 222Q122.2 222 122.1 222Q121.9 222 121.9 221.8Q121.9 221.6 122.1 221.6Q122.4 221.6 122.5 221.5Q122.6 221.4 122.6 221V218.5Q122.6 217.9 122.3 217.6Q122.1 217.4 121.7 217.4Q121.4 217.4 121.1 217.6Q120.8 217.8 120.6 218.1Q120.4 218.4 120.4 218.8V221Q120.4 221.3 120.5 221.5Q120.6 221.6 120.9 221.6Q121 221.6 121 221.8Q121 222 120.9 222Q120.7 222 120.5 222Q120.2 222 120 222Q119.7 222 119.3 222Q119 222 118.9 222ZM127.9 222.1Q127.6 222.1 127.3 222Q127.1 222 126.9 221.7Q126.7 221.5 126.7 221.1V217.4Q126.7 217.3 126.6 217.3H126Q125.8 217.3 125.8 217.1V217.1Q125.8 216.9 126 216.9Q126.5 216.7 126.8 216.2Q127.1 215.8 127.2 215Q127.2 214.8 127.3 214.8H127.5Q127.7 214.8 127.7 215V216.7Q127.7 216.8 127.8 216.8H129Q129.1 216.8 129.1 216.9Q129.1 216.9 129.1 217V217.1Q129.1 217.3 129 217.3H127.8Q127.7 217.3 127.7 217.4V220.8Q127.7 221.4 128.3 221.4Q128.6 221.4 128.8 221.2Q129 221 129.1 220.8Q129.2 220.7 129.3 220.7Q129.3 220.7 129.4 220.7Q129.6 220.8 129.5 221Q129.4 221.3 129.2 221.5Q129 221.8 128.7 222Q128.3 222.1 127.9 222.1ZM133.9 222.1Q133.1 222.1 132.5 221.8Q131.9 221.4 131.6 220.9Q131.3 220.3 131.3 219.5Q131.3 219 131.4 218.5Q131.6 218 132 217.6Q132.3 217.2 132.8 216.9Q133.2 216.7 133.8 216.7Q134.4 216.7 134.8 216.9Q135.2 217.2 135.5 217.6Q135.8 218 135.9 218.4Q136 218.8 136 219.2Q136 219.4 135.8 219.4H132.6Q132.5 219.4 132.4 219.4Q132.4 219.4 132.4 219.5Q132.4 220.3 132.6 220.8Q132.8 221.2 133.2 221.4Q133.6 221.6 134 221.6Q134.4 221.6 134.7 221.5Q135.1 221.3 135.3 221.1Q135.5 220.9 135.6 220.7Q135.7 220.6 135.9 220.7Q136.1 220.8 136 221Q135.8 221.2 135.6 221.4Q135.3 221.7 134.9 221.9Q134.5 222.1 133.9 222.1ZM132.6 218.9H134.6Q134.9 218.9 134.9 218.7Q134.9 218.4 134.8 218Q134.7 217.6 134.4 217.4Q134.2 217.1 133.8 217.1Q133.4 217.1 133.2 217.3Q132.9 217.6 132.7 217.9Q132.6 218.3 132.5 218.7Q132.5 218.9 132.6 218.9ZM138.1 222Q138 222 138 221.8Q138 221.6 138.1 221.6Q138.5 221.6 138.6 221.5Q138.7 221.4 138.7 221V217.8Q138.7 217.6 138.7 217.5Q138.7 217.4 138.5 217.3Q138.4 217.3 138.3 217.3Q138.2 217.3 138.1 217.2Q138 217.2 138 217.1Q138 217 138 216.9Q138 216.9 138.1 216.9Q138.2 216.9 138.3 216.9Q138.5 216.9 138.7 216.9Q139 216.9 139.2 216.8Q139.3 216.8 139.4 216.8Q139.7 216.8 139.7 217.1V217.6Q139.7 217.6 139.7 217.6Q139.7 217.6 139.8 217.6Q140 217.2 140.4 217Q140.8 216.7 141.3 216.7Q141.7 216.7 142 216.8Q142.4 217 142.6 217.3Q142.8 217.7 142.8 218.4V221Q142.8 221.3 142.9 221.5Q143 221.6 143.3 221.6Q143.4 221.6 143.4 221.8Q143.4 222 143.3 222Q143.1 222 142.9 222Q142.6 222 142.3 222Q142 222 141.8 222Q141.5 222 141.3 222Q141.2 222 141.2 221.8Q141.2 221.6 141.3 221.6Q141.7 221.6 141.7 221.5Q141.8 221.4 141.8 221V218.5Q141.8 217.9 141.6 217.6Q141.4 217.4 141 217.4Q140.6 217.4 140.4 217.6Q140.1 217.8 139.9 218.1Q139.7 218.4 139.7 218.8V221Q139.7 221.3 139.8 221.5Q139.9 221.6 140.1 221.6Q140.3 221.6 140.3 221.8Q140.3 222 140.1 222Q140 222 139.8 222Q139.5 222 139.2 222Q138.9 222 138.6 222Q138.3 222 138.1 222ZM147.1 222.1Q146.9 222.1 146.6 222Q146.3 222 146.1 221.7Q146 221.5 146 221.1V217.4Q146 217.3 145.9 217.3H145.2Q145.1 217.3 145.1 217.1V217.1Q145.1 216.9 145.2 216.9Q145.8 216.7 146.1 216.2Q146.3 215.8 146.4 215Q146.4 214.8 146.6 214.8H146.8Q146.9 214.8 146.9 215V216.7Q146.9 216.8 147 216.8H148.2Q148.3 216.8 148.4 216.9Q148.4 216.9 148.4 217V217.1Q148.4 217.3 148.2 217.3H147Q146.9 217.3 146.9 217.4V220.8Q146.9 221.4 147.6 221.4Q147.9 221.4 148.1 221.2Q148.3 221 148.4 220.8Q148.4 220.7 148.5 220.7Q148.6 220.7 148.7 220.7Q148.8 220.8 148.7 221Q148.6 221.3 148.4 221.5Q148.2 221.8 147.9 222Q147.6 222.1 147.1 222.1ZM150.7 222Q150.5 222 150.5 221.8Q150.5 221.6 150.7 221.6Q151.1 221.6 151.2 221.5Q151.3 221.3 151.3 221V217.8Q151.3 217.5 151.3 217.4Q151.2 217.3 151.1 217.3Q151 217.3 150.8 217.3Q150.7 217.3 150.6 217.3Q150.5 217.2 150.5 217.1Q150.5 217 150.5 216.9Q150.6 216.9 150.6 216.9Q150.7 216.9 150.9 216.9Q151.1 216.9 151.3 216.9Q151.6 216.9 151.8 216.8Q152 216.8 152 216.8Q152.3 216.8 152.3 217.1V221Q152.3 221.3 152.4 221.5Q152.5 221.6 152.9 221.6Q153 221.6 153 221.8Q153 222 152.9 222Q152.8 222 152.4 222Q152.1 222 151.8 222Q151.5 222 151.2 222Q150.8 222 150.7 222ZM151.7 215.1Q151.5 215.1 151.3 214.9Q151.1 214.7 151.1 214.5Q151.1 214.2 151.3 214Q151.5 213.8 151.7 213.8Q152 213.8 152.2 214Q152.4 214.2 152.4 214.5Q152.4 214.7 152.2 214.9Q152 215.1 151.7 215.1ZM157.4 222.1Q156.7 222.1 156.2 221.8Q155.6 221.4 155.3 220.8Q154.9 220.2 154.9 219.4Q154.9 218.7 155.3 218.1Q155.6 217.4 156.2 217.1Q156.7 216.7 157.4 216.7Q158.1 216.7 158.7 217.1Q159.3 217.4 159.6 218.1Q159.9 218.7 159.9 219.4Q159.9 220.2 159.6 220.8Q159.3 221.4 158.7 221.8Q158.1 222.1 157.4 222.1ZM157.4 221.8Q158.1 221.8 158.4 221.1Q158.8 220.5 158.8 219.4Q158.8 218.4 158.4 217.7Q158.1 217.1 157.4 217.1Q156.8 217.1 156.4 217.7Q156.1 218.4 156.1 219.4Q156.1 220.5 156.4 221.1Q156.8 221.8 157.4 221.8ZM162 222Q161.8 222 161.8 221.8Q161.8 221.6 162 221.6Q162.3 221.6 162.4 221.5Q162.5 221.4 162.5 221V217.8Q162.5 217.6 162.5 217.5Q162.5 217.4 162.3 217.3Q162.2 217.3 162.1 217.3Q162 217.3 161.9 217.2Q161.8 217.2 161.8 217.1Q161.8 217 161.8 216.9Q161.9 216.9 162 216.9Q162 216.9 162.2 216.9Q162.3 216.9 162.6 216.9Q162.8 216.9 163 216.8Q163.2 216.8 163.2 216.8Q163.5 216.8 163.5 217.1V217.6Q163.5 217.6 163.5 217.6Q163.6 217.6 163.6 217.6Q163.8 217.2 164.2 217Q164.6 216.7 165.1 216.7Q165.5 216.7 165.8 216.8Q166.2 217 166.4 217.3Q166.6 217.7 166.6 218.4V221Q166.6 221.3 166.7 221.5Q166.8 221.6 167.1 221.6Q167.2 221.6 167.2 221.8Q167.2 222 167.1 222Q167 222 166.7 222Q166.4 222 166.1 222Q165.8 222 165.6 222Q165.3 222 165.2 222Q165 222 165 221.8Q165 221.6 165.2 221.6Q165.5 221.6 165.6 221.5Q165.6 221.4 165.6 221V218.5Q165.6 217.9 165.4 217.6Q165.2 217.4 164.8 217.4Q164.5 217.4 164.2 217.6Q163.9 217.8 163.7 218.1Q163.5 218.4 163.5 218.8V221Q163.5 221.3 163.6 221.5Q163.7 221.6 163.9 221.6Q164.1 221.6 164.1 221.8Q164.1 222 163.9 222Q163.8 222 163.6 222Q163.3 222 163 222Q162.7 222 162.4 222Q162.1 222 162 222ZM173.6 222Q173.4 222 173.4 221.8Q173.4 221.6 173.6 221.6Q174 221.6 174.1 221.5Q174.3 221.3 174.3 221V217.8Q174.3 217.5 174.2 217.4Q174.1 217.3 174 217.3Q173.9 217.3 173.7 217.3Q173.6 217.3 173.5 217.3Q173.4 217.2 173.4 217.1Q173.4 217 173.4 216.9Q173.5 216.9 173.5 216.9Q173.6 216.9 173.8 216.9Q174 216.9 174.2 216.9Q174.5 216.9 174.7 216.8Q174.9 216.8 175 216.8Q175.2 216.8 175.2 217.1V221Q175.2 221.3 175.3 221.5Q175.4 221.6 175.8 221.6Q176 221.6 176 221.8Q176 222 175.8 222Q175.7 222 175.3 222Q175 222 174.7 222Q174.5 222 174.1 222Q173.7 222 173.6 222ZM174.7 215.1Q174.4 215.1 174.2 214.9Q174 214.7 174 214.5Q174 214.2 174.2 214Q174.4 213.8 174.7 213.8Q174.9 213.8 175.1 214Q175.3 214.2 175.3 214.5Q175.3 214.7 175.1 214.9Q174.9 215.1 174.7 215.1ZM178 222Q177.8 222 177.8 221.8Q177.8 221.6 178 221.6Q178.3 221.6 178.5 221.5Q178.6 221.4 178.6 221V217.8Q178.6 217.6 178.5 217.5Q178.5 217.4 178.3 217.3Q178.3 217.3 178.1 217.3Q178 217.3 178 217.2Q177.8 217.2 177.8 217.1Q177.8 217 177.8 216.9Q177.9 216.9 178 216.9Q178 216.9 178.2 216.9Q178.4 216.9 178.6 216.9Q178.8 216.9 179 216.8Q179.2 216.8 179.2 216.8Q179.5 216.8 179.5 217.1V217.6Q179.5 217.6 179.6 217.6Q179.6 217.6 179.6 217.6Q179.9 217.2 180.2 217Q180.6 216.7 181.1 216.7Q181.5 216.7 181.9 216.8Q182.2 217 182.4 217.3Q182.6 217.7 182.6 218.4V221Q182.6 221.3 182.7 221.5Q182.8 221.6 183.1 221.6Q183.3 221.6 183.3 221.8Q183.3 222 183.1 222Q183 222 182.7 222Q182.4 222 182.2 222Q181.9 222 181.6 222Q181.3 222 181.2 222Q181 222 181 221.8Q181 221.6 181.2 221.6Q181.5 221.6 181.6 221.5Q181.7 221.4 181.7 221V218.5Q181.7 217.9 181.4 217.6Q181.2 217.4 180.8 217.4Q180.5 217.4 180.2 217.6Q179.9 217.8 179.7 218.1Q179.5 218.4 179.5 218.8V221Q179.5 221.3 179.6 221.5Q179.7 221.6 180 221.6Q180.1 221.6 180.1 221.8Q180.1 222 180 222Q179.8 222 179.6 222Q179.3 222 179.1 222Q178.8 222 178.4 222Q178.1 222 178 222ZM187 222.1Q186.7 222.1 186.4 222Q186.2 222 186 221.7Q185.8 221.5 185.8 221.1V217.4Q185.8 217.3 185.7 217.3H185.1Q184.9 217.3 184.9 217.1V217.1Q184.9 216.9 185.1 216.9Q185.6 216.7 185.9 216.2Q186.2 215.8 186.3 215Q186.3 214.8 186.4 214.8H186.6Q186.8 214.8 186.8 215V216.7Q186.8 216.8 186.9 216.8H188.1Q188.2 216.8 188.2 216.9Q188.3 216.9 188.3 217V217.1Q188.3 217.3 188.1 217.3H186.9Q186.8 217.3 186.8 217.4V220.8Q186.8 221.4 187.4 221.4Q187.7 221.4 187.9 221.2Q188.1 221 188.2 220.8Q188.3 220.7 188.4 220.7Q188.4 220.7 188.5 220.7Q188.7 220.8 188.6 221Q188.5 221.3 188.3 221.5Q188.1 221.8 187.8 222Q187.4 222.1 187 222.1ZM192.8 222.1Q192.1 222.1 191.6 221.8Q191 221.4 190.7 220.8Q190.3 220.2 190.3 219.4Q190.3 218.7 190.7 218.1Q191 217.4 191.6 217.1Q192.1 216.7 192.8 216.7Q193.5 216.7 194.1 217.1Q194.7 217.4 195 218.1Q195.3 218.7 195.3 219.4Q195.3 220.2 195 220.8Q194.7 221.4 194.1 221.8Q193.5 222.1 192.8 222.1ZM192.8 221.8Q193.5 221.8 193.8 221.1Q194.2 220.5 194.2 219.4Q194.2 218.4 193.8 217.7Q193.5 217.1 192.8 217.1Q192.2 217.1 191.8 217.7Q191.5 218.4 191.5 219.4Q191.5 220.5 191.8 221.1Q192.2 221.8 192.8 221.8ZM201.7 224.3Q201.5 224.3 201.5 224.1Q201.5 223.9 201.7 223.9Q202.1 223.9 202.2 223.7Q202.3 223.6 202.3 223.3V217.8Q202.3 217.5 202.2 217.5Q202.2 217.4 202 217.3Q202 217.3 201.9 217.3Q201.8 217.3 201.7 217.2Q201.5 217.2 201.5 217.1Q201.5 217 201.6 216.9Q201.6 216.9 201.7 216.9Q201.7 216.9 201.9 216.9Q202.1 216.9 202.3 216.9Q202.5 216.9 202.7 216.8Q202.9 216.8 203 216.8Q203.3 216.8 203.3 217.1V217.4Q203.3 217.5 203.3 217.5Q203.3 217.5 203.4 217.5Q203.5 217.4 203.7 217.2Q203.8 217 204.1 216.8Q204.4 216.7 204.8 216.7Q205.3 216.7 205.8 217Q206.2 217.2 206.6 217.8Q206.9 218.4 206.9 219.3Q206.9 220.3 206.5 220.9Q206.2 221.5 205.7 221.8Q205.2 222.1 204.8 222.1Q204.3 222.1 204 222Q203.6 221.8 203.4 221.6Q203.3 221.5 203.3 221.5Q203.3 221.5 203.3 221.6V223.3Q203.3 223.6 203.4 223.8Q203.6 223.9 204 223.9Q204.2 223.9 204.2 224.1Q204.2 224.3 204 224.3Q203.9 224.3 203.7 224.3Q203.5 224.3 203.2 224.2Q203 224.2 202.8 224.2Q202.5 224.2 202.1 224.3Q201.8 224.3 201.7 224.3ZM204.5 221.7Q205.2 221.7 205.5 221Q205.8 220.4 205.8 219.3Q205.8 218.3 205.6 217.9Q205.4 217.4 205.1 217.3Q204.8 217.2 204.6 217.2Q204.3 217.2 204 217.4Q203.7 217.6 203.5 218Q203.3 218.4 203.3 218.9V220.3Q203.3 220.6 203.4 220.9Q203.6 221.3 203.8 221.5Q204.1 221.7 204.5 221.7ZM208.8 222Q208.7 222 208.7 221.8Q208.7 221.6 208.8 221.6Q209.3 221.6 209.4 221.5Q209.6 221.4 209.6 221V217.8Q209.6 217.6 209.6 217.5Q209.5 217.3 209.4 217.3Q209.3 217.3 209.1 217.3Q208.8 217.3 208.7 217.2Q208.6 217.2 208.6 217.1Q208.6 216.9 208.8 216.9Q208.8 216.9 209 216.9Q209.2 216.9 209.5 216.8Q209.8 216.8 210 216.8Q210.2 216.8 210.3 216.8Q210.6 216.8 210.6 217.1V217.7Q210.6 217.8 210.6 217.8Q210.6 217.8 210.7 217.8Q210.9 217.5 211.1 217.3Q211.3 217 211.7 216.9Q212 216.7 212.3 216.7Q212.9 216.7 213.2 216.9Q213.5 217.2 213.5 217.6Q213.5 217.8 213.3 218Q213.1 218.2 212.8 218.2Q212.4 218.2 212.3 218Q212.2 217.8 212.2 217.7Q212.2 217.7 212.2 217.6Q212.2 217.4 212.2 217.3Q212.1 217.2 211.9 217.2Q211.7 217.2 211.5 217.4Q211.2 217.6 211 217.9Q210.9 218.2 210.7 218.5Q210.6 218.9 210.6 219.2V221Q210.6 221.3 210.8 221.5Q211.1 221.6 211.5 221.6Q211.6 221.6 211.6 221.8Q211.6 222 211.5 222Q211.3 222 211 222Q210.7 222 210.1 222Q209.6 222 209.3 222Q208.9 222 208.8 222ZM217.8 222.1Q217 222.1 216.4 221.8Q215.8 221.4 215.5 220.9Q215.2 220.3 215.2 219.5Q215.2 219 215.4 218.5Q215.5 218 215.9 217.6Q216.2 217.2 216.7 216.9Q217.2 216.7 217.7 216.7Q218.3 216.7 218.7 216.9Q219.1 217.2 219.4 217.6Q219.7 218 219.8 218.4Q220 218.8 220 219.2Q220 219.4 219.7 219.4H216.5Q216.4 219.4 216.4 219.4Q216.3 219.4 216.3 219.5Q216.3 220.3 216.5 220.8Q216.8 221.2 217.1 221.4Q217.5 221.6 217.9 221.6Q218.3 221.6 218.7 221.5Q219 221.3 219.2 221.1Q219.4 220.9 219.5 220.7Q219.7 220.6 219.8 220.7Q220 220.8 219.9 221Q219.8 221.2 219.5 221.4Q219.2 221.7 218.8 221.9Q218.4 222.1 217.8 222.1ZM216.6 218.9H218.6Q218.8 218.9 218.8 218.7Q218.8 218.4 218.7 218Q218.6 217.6 218.4 217.4Q218.1 217.1 217.7 217.1Q217.3 217.1 217.1 217.3Q216.8 217.6 216.7 217.9Q216.5 218.3 216.4 218.7Q216.4 218.9 216.6 218.9ZM224.5 222.1Q223.9 222.1 223.3 221.9Q222.7 221.6 222.3 221Q222 220.4 222 219.5Q222 218.8 222.3 218.1Q222.6 217.5 223.2 217.1Q223.8 216.7 224.6 216.7Q225.1 216.7 225.5 216.8Q225.9 217 226.1 217.3Q226.4 217.5 226.4 217.9Q226.4 218.2 226.2 218.5Q226 218.7 225.7 218.7Q225.4 218.7 225.2 218.6Q225 218.4 225 218.1Q225 217.8 225.4 217.6Q225.5 217.5 225.4 217.3Q225.2 217.2 224.7 217.2Q224.5 217.2 224.2 217.3Q224 217.4 223.7 217.6Q223.4 217.9 223.3 218.4Q223.1 218.8 223.1 219.5Q223.1 220.5 223.6 221Q224 221.6 224.7 221.6Q225.1 221.6 225.5 221.4Q225.8 221.2 226 220.9Q226.2 220.7 226.3 220.5Q226.4 220.3 226.6 220.4Q226.7 220.5 226.7 220.6Q226.6 220.9 226.3 221.3Q226.1 221.6 225.6 221.9Q225.2 222.1 224.5 222.1ZM228.7 222Q228.5 222 228.5 221.8Q228.5 221.6 228.7 221.6Q229.1 221.6 229.2 221.5Q229.3 221.3 229.3 221V217.8Q229.3 217.5 229.3 217.4Q229.2 217.3 229.1 217.3Q229 217.3 228.8 217.3Q228.7 217.3 228.6 217.3Q228.5 217.2 228.5 217.1Q228.5 217 228.5 216.9Q228.6 216.9 228.6 216.9Q228.7 216.9 228.9 216.9Q229.1 216.9 229.3 216.9Q229.6 216.9 229.8 216.8Q230 216.8 230 216.8Q230.3 216.8 230.3 217.1V221Q230.3 221.3 230.4 221.5Q230.5 221.6 230.9 221.6Q231 221.6 231 221.8Q231 222 230.9 222Q230.7 222 230.4 222Q230.1 222 229.8 222Q229.5 222 229.2 222Q228.8 222 228.7 222ZM229.7 215.1Q229.5 215.1 229.3 214.9Q229.1 214.7 229.1 214.5Q229.1 214.2 229.3 214Q229.5 213.8 229.7 213.8Q230 213.8 230.2 214Q230.4 214.2 230.4 214.5Q230.4 214.7 230.2 214.9Q230 215.1 229.7 215.1ZM235.6 222.1Q235.2 222.1 234.8 222Q234.4 221.9 234.1 221.8Q233.9 221.7 233.7 221.8Q233.7 221.8 233.6 221.9Q233.5 222 233.5 222Q233.4 222.1 233.3 222.1Q233.2 222 233.2 221.9V220.5Q233.2 220.3 233.3 220.3Q233.4 220.3 233.5 220.4Q233.9 221 234.4 221.3Q234.9 221.6 235.6 221.6Q236.1 221.6 236.5 221.4Q236.8 221.2 236.8 220.8Q236.8 220.4 236.6 220.3Q236.3 220.1 235.9 220Q235.5 219.9 235.1 219.8Q234.6 219.7 234.2 219.5Q233.8 219.3 233.5 219Q233.3 218.7 233.3 218.2Q233.3 217.8 233.5 217.5Q233.6 217.1 234 216.9Q234.4 216.7 235.1 216.7Q235.4 216.7 235.8 216.8Q236.1 216.9 236.3 217Q236.7 217.1 236.8 217Q236.8 217 236.9 216.9Q237 216.9 237 216.8Q237.1 216.7 237.2 216.8Q237.3 216.8 237.3 216.9V218.2Q237.3 218.3 237.1 218.4Q237 218.4 237 218.3Q236.7 217.6 236.2 217.4Q235.7 217.1 235.2 217.1Q234.7 217.1 234.4 217.4Q234.1 217.7 234.1 218Q234.1 218.3 234.3 218.4Q234.6 218.6 235 218.7Q235.4 218.8 235.8 218.8Q236.3 218.9 236.7 219.1Q237.1 219.3 237.4 219.6Q237.6 219.9 237.6 220.5Q237.6 221.2 237.1 221.7Q236.5 222.1 235.6 222.1ZM242.2 222.1Q241.5 222.1 240.9 221.8Q240.3 221.4 239.9 220.9Q239.6 220.3 239.6 219.5Q239.6 219 239.8 218.5Q240 218 240.3 217.6Q240.7 217.2 241.1 216.9Q241.6 216.7 242.2 216.7Q242.8 216.7 243.2 216.9Q243.6 217.2 243.9 217.6Q244.1 218 244.3 218.4Q244.4 218.8 244.4 219.2Q244.4 219.4 244.2 219.4H241Q240.8 219.4 240.8 219.4Q240.8 219.4 240.8 219.5Q240.8 220.3 241 220.8Q241.2 221.2 241.6 221.4Q241.9 221.6 242.3 221.6Q242.8 221.6 243.1 221.5Q243.4 221.3 243.6 221.1Q243.9 220.9 244 220.7Q244.1 220.6 244.3 220.7Q244.4 220.8 244.3 221Q244.2 221.2 243.9 221.4Q243.7 221.7 243.2 221.9Q242.8 222.1 242.2 222.1ZM241 218.9H243Q243.2 218.9 243.2 218.7Q243.2 218.4 243.1 218Q243 217.6 242.8 217.4Q242.6 217.1 242.1 217.1Q241.8 217.1 241.5 217.3Q241.3 217.6 241.1 217.9Q240.9 218.3 240.9 218.7Q240.8 218.9 241 218.9ZM246.9 223.9Q246.7 224 246.6 223.9Q246.6 223.8 246.6 223.7Q246.6 223.7 246.6 223.6Q246.8 223.5 247.1 223.2Q247.3 222.9 247.5 222.6Q247.5 222.4 247.5 222.2Q247.5 222.1 247.2 222.1Q246.9 222.1 246.7 221.9Q246.4 221.7 246.4 221.3Q246.4 221.1 246.6 220.8Q246.9 220.6 247.2 220.6Q247.6 220.6 247.9 220.9Q248.2 221.2 248.2 221.7Q248.2 222.2 248 222.6Q247.7 223.1 247.4 223.4Q247.1 223.8 246.9 223.9ZM257.8 222.1Q257.2 222.1 256.9 221.9Q256.5 221.7 256.4 221.5Q256.3 221.4 256.2 221.4Q256.2 221.4 256.1 221.5Q256.1 221.5 255.9 221.7Q255.8 221.9 255.7 222Q255.7 222.1 255.6 222.1Q255.4 222 255.4 221.9Q255.4 221.8 255.5 221.4Q255.5 220.9 255.5 220.4V214.3Q255.5 214 255.5 213.9Q255.4 213.8 255.3 213.8Q255.2 213.7 255 213.7Q254.9 213.7 254.8 213.7Q254.7 213.7 254.7 213.5Q254.7 213.4 254.7 213.4Q254.8 213.3 254.8 213.3Q254.9 213.3 255.1 213.3Q255.3 213.3 255.5 213.3Q255.8 213.3 256 213.3Q256.2 213.3 256.3 213.3Q256.5 213.3 256.5 213.6V217.3Q256.5 217.3 256.6 217.3Q256.6 217.4 256.7 217.3Q256.8 217.1 257.2 216.9Q257.5 216.7 258.1 216.7Q258.4 216.7 258.7 216.8Q259.1 216.9 259.4 217.2Q259.7 217.5 259.9 218.1Q260.1 218.6 260.1 219.3Q260.1 220.1 259.9 220.7Q259.7 221.2 259.3 221.5Q258.9 221.9 258.5 222Q258.1 222.1 257.8 222.1ZM257.7 221.7Q258.2 221.7 258.4 221.5Q258.7 221.3 258.9 220.8Q259 220.3 259 219.3Q259 218.4 258.9 218Q258.7 217.5 258.4 217.3Q258.2 217.1 257.8 217.1Q257.5 217.1 257.2 217.3Q256.9 217.4 256.7 217.8Q256.5 218.2 256.5 218.8V219.9Q256.5 220.9 256.9 221.3Q257.2 221.7 257.7 221.7ZM264.7 222.1Q263.9 222.1 263.3 221.8Q262.7 221.4 262.4 220.9Q262.1 220.3 262.1 219.5Q262.1 219 262.3 218.5Q262.5 218 262.8 217.6Q263.1 217.2 263.6 216.9Q264.1 216.7 264.6 216.7Q265.2 216.7 265.6 216.9Q266.1 217.2 266.3 217.6Q266.6 218 266.7 218.4Q266.9 218.8 266.9 219.2Q266.9 219.4 266.7 219.4H263.4Q263.3 219.4 263.3 219.4Q263.2 219.4 263.2 219.5Q263.2 220.3 263.5 220.8Q263.7 221.2 264 221.4Q264.4 221.6 264.8 221.6Q265.2 221.6 265.6 221.5Q265.9 221.3 266.1 221.1Q266.3 220.9 266.4 220.7Q266.6 220.6 266.7 220.7Q266.9 220.8 266.8 221Q266.7 221.2 266.4 221.4Q266.1 221.7 265.7 221.9Q265.3 222.1 264.7 222.1ZM263.5 218.9H265.5Q265.7 218.9 265.7 218.7Q265.7 218.4 265.6 218Q265.5 217.6 265.3 217.4Q265 217.1 264.6 217.1Q264.3 217.1 264 217.3Q263.7 217.6 263.6 217.9Q263.4 218.3 263.3 218.7Q263.3 218.9 263.5 218.9ZM270.4 222.1Q270 222.1 269.6 222Q269.3 221.8 269.1 221.5Q268.9 221.1 268.9 220.7Q268.9 220.1 269.3 219.7Q269.7 219.3 270.3 219.1Q271 218.9 271.8 218.9Q271.9 218.9 271.9 218.7V218.4Q271.9 217.8 271.7 217.5Q271.4 217.1 271 217.1Q270.6 217.1 270.4 217.2Q270.3 217.3 270.4 217.5Q270.5 217.9 270.3 218.1Q270.1 218.4 269.8 218.4Q269.5 218.4 269.4 218.2Q269.2 218 269.2 217.8Q269.2 217.5 269.4 217.3Q269.6 217 270.1 216.9Q270.5 216.7 271 216.7Q272 216.7 272.5 217.1Q272.9 217.6 272.9 218.3V220.7Q272.9 221.1 273 221.2Q273.1 221.4 273.3 221.4Q273.4 221.4 273.5 221.3Q273.7 221.2 273.8 221.4Q273.9 221.4 273.8 221.6Q273.7 221.8 273.5 221.9Q273.3 222.1 272.9 222.1Q272.7 222.1 272.4 221.9Q272.2 221.7 272 221.4Q272 221.3 271.9 221.4Q271.8 221.6 271.5 221.7Q271.3 221.9 271 222Q270.7 222.1 270.4 222.1ZM270.9 221.5Q271.2 221.5 271.4 221.3Q271.7 221.1 271.8 220.9Q271.9 220.6 271.9 220.4V219.4Q271.9 219.2 271.8 219.2Q271 219.2 270.5 219.5Q270 219.8 270 220.5Q270 221 270.2 221.2Q270.3 221.4 270.5 221.4Q270.7 221.5 270.9 221.5ZM277.6 222.1Q276.9 222.1 276.5 221.7Q276.1 221.3 276.1 220.5V217.8Q276.1 217.6 276 217.5Q276 217.3 275.8 217.3Q275.7 217.3 275.6 217.3Q275.5 217.3 275.5 217.3Q275.3 217.2 275.3 217.1Q275.3 217 275.3 216.9Q275.4 216.9 275.5 216.9Q275.5 216.9 275.7 216.9Q275.9 216.9 276.1 216.9Q276.3 216.9 276.5 216.8Q276.7 216.8 276.8 216.8Q277.1 216.8 277.1 217.1V220.3Q277.1 220.9 277.3 221.2Q277.6 221.4 278.1 221.4Q278.7 221.4 278.9 221.1Q279.2 220.7 279.2 220.2V217.8Q279.2 217.6 279.2 217.5Q279.1 217.3 279 217.3Q278.9 217.3 278.8 217.3Q278.7 217.3 278.6 217.3Q278.4 217.2 278.4 217.1Q278.4 217 278.5 216.9Q278.5 216.9 278.6 216.9Q278.6 216.9 278.8 216.9Q279 216.9 279.2 216.9Q279.5 216.9 279.7 216.8Q279.9 216.8 279.9 216.8Q280.2 216.8 280.2 217.1V221Q280.2 221.3 280.3 221.4Q280.3 221.5 280.5 221.5Q280.5 221.5 280.6 221.6Q280.7 221.6 280.7 221.6Q280.9 221.6 280.9 221.8Q280.9 222 280.7 222Q280.7 222 280.4 222Q280.2 222 279.9 222Q279.6 222 279.5 222Q279.3 222 279.3 221.7Q279.3 221.7 279.3 221.6Q279.2 221.4 279.2 221.4Q279.2 221.2 279.1 221.3Q279 221.4 278.8 221.6Q278.6 221.8 278.4 222Q278.1 222.1 277.6 222.1ZM284.5 222.1Q284.2 222.1 283.9 222Q283.7 222 283.5 221.7Q283.3 221.5 283.3 221.1V217.4Q283.3 217.3 283.2 217.3H282.6Q282.4 217.3 282.4 217.1V217.1Q282.4 216.9 282.6 216.9Q283.2 216.7 283.4 216.2Q283.7 215.8 283.8 215Q283.8 214.8 283.9 214.8H284.1Q284.3 214.8 284.3 215V216.7Q284.3 216.8 284.4 216.8H285.6Q285.7 216.8 285.7 216.9Q285.8 216.9 285.8 217V217.1Q285.8 217.3 285.6 217.3H284.4Q284.3 217.3 284.3 217.4V220.8Q284.3 221.4 284.9 221.4Q285.2 221.4 285.4 221.2Q285.6 221 285.7 220.8Q285.8 220.7 285.9 220.7Q285.9 220.7 286 220.7Q286.2 220.8 286.1 221Q286 221.3 285.8 221.5Q285.6 221.8 285.3 222Q285 222.1 284.5 222.1ZM288.1 222Q287.9 222 287.9 221.8Q287.9 221.6 288.1 221.6Q288.5 221.6 288.6 221.5Q288.7 221.3 288.7 221V217.8Q288.7 217.5 288.6 217.4Q288.6 217.3 288.4 217.3Q288.3 217.3 288.2 217.3Q288.1 217.3 288 217.3Q287.8 217.2 287.8 217.1Q287.8 217 287.9 216.9Q287.9 216.9 288 216.9Q288 216.9 288.2 216.9Q288.4 216.9 288.7 216.9Q288.9 216.9 289.1 216.8Q289.3 216.8 289.4 216.8Q289.7 216.8 289.7 217.1V221Q289.7 221.3 289.8 221.5Q289.9 221.6 290.2 221.6Q290.4 221.6 290.4 221.8Q290.4 222 290.2 222Q290.1 222 289.8 222Q289.5 222 289.2 222Q288.9 222 288.5 222Q288.2 222 288.1 222ZM289.1 215.1Q288.8 215.1 288.6 214.9Q288.4 214.7 288.4 214.5Q288.4 214.2 288.6 214Q288.8 213.8 289.1 213.8Q289.4 213.8 289.6 214Q289.8 214.2 289.8 214.5Q289.8 214.7 289.6 214.9Q289.4 215.1 289.1 215.1ZM292.4 222Q292.4 222 292.3 221.9Q292.3 221.9 292.3 221.8Q292.3 221.7 292.3 221.7Q292.4 221.6 292.4 221.6Q292.9 221.6 293.1 221.5Q293.3 221.4 293.3 221V217.4Q293.3 217.3 293.2 217.3H292.4Q292.3 217.3 292.3 217.1V217Q292.3 216.9 292.3 216.9Q292.4 216.8 292.4 216.8H293.2Q293.3 216.8 293.3 216.7V215.7Q293.3 214.8 293.5 214.3Q293.8 213.8 294.2 213.5Q294.7 213.3 295.1 213.3Q295.5 213.3 295.7 213.5Q296 213.7 296 214Q296 214.2 295.8 214.4Q295.7 214.6 295.4 214.6Q295.2 214.6 295.1 214.5Q295 214.4 294.9 214.3Q294.8 214.2 294.8 214Q294.8 213.9 294.6 213.9Q294.5 213.9 294.4 214.2Q294.2 214.5 294.2 215.3V216.7Q294.2 216.8 294.3 216.8H295.5Q295.6 216.8 295.7 216.9Q295.7 216.9 295.7 217V217.1Q295.7 217.3 295.5 217.3H294.3Q294.2 217.3 294.2 217.4V221Q294.2 221.4 294.5 221.5Q294.7 221.6 295.3 221.6Q295.3 221.6 295.4 221.7Q295.4 221.7 295.4 221.8Q295.4 221.9 295.4 221.9Q295.3 222 295.3 222Q295.2 222 294.9 222Q294.7 222 294.4 222Q294 222 293.7 222Q293.3 222 293 222Q292.6 222 292.4 222ZM299.7 222.1Q299 222.1 298.6 221.7Q298.2 221.3 298.2 220.5V217.8Q298.2 217.6 298.2 217.5Q298.1 217.3 297.9 217.3Q297.8 217.3 297.7 217.3Q297.6 217.3 297.6 217.3Q297.4 217.2 297.4 217.1Q297.4 217 297.5 216.9Q297.5 216.9 297.6 216.9Q297.6 216.9 297.8 216.9Q298 216.9 298.2 216.9Q298.5 216.9 298.6 216.8Q298.8 216.8 298.9 216.8Q299.2 216.8 299.2 217.1V220.3Q299.2 220.9 299.5 221.2Q299.7 221.4 300.2 221.4Q300.8 221.4 301.1 221.1Q301.3 220.7 301.3 220.2V217.8Q301.3 217.6 301.3 217.5Q301.2 217.3 301.1 217.3Q301 217.3 300.9 217.3Q300.8 217.3 300.7 217.3Q300.6 217.2 300.6 217.1Q300.6 217 300.6 216.9Q300.6 216.9 300.7 216.9Q300.8 216.9 300.9 216.9Q301.1 216.9 301.4 216.9Q301.6 216.9 301.8 216.8Q302 216.8 302.1 216.8Q302.3 216.8 302.3 217.1V221Q302.3 221.3 302.4 221.4Q302.4 221.5 302.6 221.5Q302.7 221.5 302.7 221.6Q302.8 221.6 302.8 221.6Q303 221.6 303 221.8Q303 222 302.8 222Q302.8 222 302.5 222Q302.3 222 302 222Q301.8 222 301.7 222Q301.4 222 301.4 221.7Q301.4 221.7 301.4 221.6Q301.4 221.4 301.4 221.4Q301.3 221.2 301.2 221.3Q301.1 221.4 301 221.6Q300.8 221.8 300.5 222Q300.2 222.1 299.7 222.1ZM304.9 222Q304.7 222 304.7 221.8Q304.7 221.6 304.9 221.6Q305.3 221.6 305.4 221.5Q305.5 221.4 305.5 221V214.3Q305.5 214 305.5 213.9Q305.4 213.8 305.3 213.8Q305.2 213.7 305 213.7Q304.9 213.7 304.8 213.7Q304.7 213.7 304.7 213.5Q304.7 213.4 304.7 213.4Q304.8 213.3 304.8 213.3Q304.9 213.3 305.1 213.3Q305.3 213.3 305.5 213.3Q305.8 213.3 306 213.3Q306.2 213.3 306.3 213.3Q306.5 213.3 306.5 213.6V221Q306.5 221.3 306.6 221.5Q306.8 221.6 307.1 221.6Q307.3 221.6 307.3 221.8Q307.3 222 307.1 222Q307 222 306.7 222Q306.3 222 306 222Q305.8 222 305.4 222Q305 222 304.9 222ZM316.1 222.1Q315.4 222.1 314.9 221.9Q314.3 221.6 313.9 221Q313.5 220.4 313.5 219.5Q313.5 218.8 313.9 218.1Q314.2 217.5 314.8 217.1Q315.4 216.7 316.2 216.7Q316.7 216.7 317.1 216.8Q317.4 217 317.7 217.3Q318 217.5 318 217.9Q318 218.2 317.8 218.5Q317.6 218.7 317.3 218.7Q317 218.7 316.8 218.6Q316.6 218.4 316.6 218.1Q316.6 217.8 317 217.6Q317.1 217.5 316.9 217.3Q316.8 217.2 316.3 217.2Q316.1 217.2 315.8 217.3Q315.5 217.4 315.3 217.6Q315 217.9 314.8 218.4Q314.7 218.8 314.7 219.5Q314.7 220.5 315.1 221Q315.6 221.6 316.2 221.6Q316.7 221.6 317 221.4Q317.4 221.2 317.6 220.9Q317.8 220.7 317.9 220.5Q318 220.3 318.1 220.4Q318.3 220.5 318.3 220.6Q318.2 220.9 317.9 221.3Q317.7 221.6 317.2 221.9Q316.8 222.1 316.1 222.1ZM322.5 222.1Q321.9 222.1 321.3 221.8Q320.7 221.4 320.4 220.8Q320 220.2 320 219.4Q320 218.7 320.4 218.1Q320.7 217.4 321.3 217.1Q321.9 216.7 322.5 216.7Q323.2 216.7 323.8 217.1Q324.4 217.4 324.7 218.1Q325 218.7 325 219.4Q325 220.2 324.7 220.8Q324.4 221.4 323.8 221.8Q323.2 222.1 322.5 222.1ZM322.5 221.8Q323.2 221.8 323.5 221.1Q323.9 220.5 323.9 219.4Q323.9 218.4 323.5 217.7Q323.2 217.1 322.5 217.1Q321.9 217.1 321.5 217.7Q321.2 218.4 321.2 219.4Q321.2 220.5 321.5 221.1Q321.9 221.8 322.5 221.8ZM329.1 222.1Q328.7 222.1 328.2 221.9Q327.7 221.6 327.3 221Q327 220.5 327 219.5Q327 218.8 327.2 218.3Q327.4 217.7 327.7 217.4Q328 217 328.4 216.9Q328.8 216.7 329.1 216.7Q329.6 216.7 330 216.9Q330.3 217.1 330.5 217.3Q330.6 217.4 330.6 217.3Q330.7 217.3 330.7 217.2V214.3Q330.7 214 330.6 213.9Q330.5 213.8 330.3 213.8Q330.2 213.7 330 213.7Q329.9 213.7 329.8 213.7Q329.6 213.7 329.6 213.5Q329.6 213.4 329.7 213.4Q329.7 213.3 329.8 213.3Q329.8 213.3 330.1 213.3Q330.3 213.3 330.6 213.3Q330.8 213.3 331.1 213.3Q331.3 213.3 331.4 213.3Q331.6 213.3 331.6 213.6V221Q331.6 221.3 331.7 221.4Q331.7 221.5 331.9 221.5Q332 221.5 332.1 221.6Q332.2 221.6 332.2 221.6Q332.4 221.6 332.4 221.8Q332.4 222 332.2 222Q332.2 222 332 222Q331.8 222 331.6 222Q331.4 222 331.2 222Q331 222 330.9 222Q330.6 222 330.6 221.7V221.4Q330.6 221.4 330.6 221.4Q330.6 221.4 330.5 221.4Q330.4 221.5 330.2 221.7Q330.1 221.9 329.8 222Q329.5 222.1 329.1 222.1ZM329.4 221.7Q329.7 221.7 330 221.5Q330.2 221.3 330.5 220.9Q330.7 220.5 330.7 220V218.6Q330.7 218.2 330.5 217.9Q330.4 217.6 330.1 217.4Q329.8 217.2 329.4 217.2Q328.7 217.2 328.4 217.8Q328.1 218.5 328.1 219.6Q328.1 220.3 328.2 220.7Q328.3 221.1 328.5 221.3Q328.7 221.6 328.9 221.6Q329.2 221.7 329.4 221.7ZM336.8 222.1Q336 222.1 335.5 221.8Q334.9 221.4 334.5 220.9Q334.2 220.3 334.2 219.5Q334.2 219 334.4 218.5Q334.6 218 334.9 217.6Q335.3 217.2 335.7 216.9Q336.2 216.7 336.8 216.7Q337.3 216.7 337.8 216.9Q338.2 217.2 338.5 217.6Q338.7 218 338.9 218.4Q339 218.8 339 219.2Q339 219.4 338.8 219.4H335.6Q335.4 219.4 335.4 219.4Q335.4 219.4 335.4 219.5Q335.4 220.3 335.6 220.8Q335.8 221.2 336.2 221.4Q336.5 221.6 336.9 221.6Q337.4 221.6 337.7 221.5Q338 221.3 338.2 221.1Q338.4 220.9 338.6 220.7Q338.7 220.6 338.9 220.7Q339 220.8 338.9 221Q338.8 221.2 338.5 221.4Q338.3 221.7 337.8 221.9Q337.4 222.1 336.8 222.1ZM335.6 218.9H337.6Q337.8 218.9 337.8 218.7Q337.8 218.4 337.7 218Q337.6 217.6 337.4 217.4Q337.2 217.1 336.7 217.1Q336.4 217.1 336.1 217.3Q335.9 217.6 335.7 217.9Q335.5 218.3 335.4 218.7Q335.4 218.9 335.6 218.9ZM341.9 222.1Q341.6 222.1 341.3 221.8Q341.1 221.6 341.1 221.3Q341.1 220.9 341.3 220.7Q341.6 220.5 341.9 220.5Q342.3 220.5 342.5 220.7Q342.7 220.9 342.7 221.3Q342.7 221.6 342.5 221.8Q342.3 222.1 341.9 222.1Z"/></g>
<g transform="translate(700 70)"><g class="f f5" fill="none" stroke="#A85E36" stroke-linecap="round" stroke-linejoin="round">
<circle class="spin" cx="70" cy="60" r="58" stroke-opacity=".5" stroke-dasharray="4 6"/>
<circle cx="70" cy="60" r="38" stroke-opacity=".3"/>
<path d="M52 44 36 60l16 16M88 44l16 16-16 16M78 38 62 82" stroke-width="2"/>
</g></g></svg>
